<?xml version="1.0" encoding="utf-8" standalone="no"?>
<!DOCTYPE svg PUBLIC "-//W3C//DTD SVG 1.1//EN"
  "http://www.w3.org/Graphics/SVG/1.1/DTD/svg11.dtd">
<svg xmlns:xlink="http://www.w3.org/1999/xlink" width="341.30225pt" height="326.35325pt" viewBox="0 0 341.30225 326.35325" xmlns="http://www.w3.org/2000/svg" version="1.1">
 <metadata>
  <rdf:RDF xmlns:dc="http://purl.org/dc/elements/1.1/" xmlns:cc="http://creativecommons.org/ns#" xmlns:rdf="http://www.w3.org/1999/02/22-rdf-syntax-ns#">
   <cc:Work>
    <dc:type rdf:resource="http://purl.org/dc/dcmitype/StillImage"/>
    <dc:date>2026-04-28T14:41:20.267826</dc:date>
    <dc:format>image/svg+xml</dc:format>
    <dc:creator>
     <cc:Agent>
      <dc:title>Matplotlib v3.10.9, https://matplotlib.org/</dc:title>
     </cc:Agent>
    </dc:creator>
   </cc:Work>
  </rdf:RDF>
 </metadata>
 <defs>
  <style type="text/css">*{stroke-linejoin: round; stroke-linecap: butt}</style>
 </defs>
 <g id="figure_1">
  <g id="patch_1">
   <path d="M 0 326.35325 
L 341.30225 326.35325 
L 341.30225 0 
L 0 0 
z
" style="fill: #ffffff"/>
  </g>
  <g id="axes_1">
   <g id="patch_2">
    <path d="M 64.24625 273.312 
L 330.35825 273.312 
L 330.35825 7.2 
L 64.24625 7.2 
z
" style="fill: #ffffff"/>
   </g>
   <g id="matplotlib.axis_1">
    <g id="xtick_1">
     <g id="line2d_1">
      <defs>
       <path id="m82e95d7781" d="M 0 0 
L 0 3.5 
" style="stroke: #000000; stroke-width: 1.5"/>
      </defs>
      <g>
       <use xlink:href="#m82e95d7781" x="76.34225" y="273.312" style="stroke: #000000; stroke-width: 1.5"/>
      </g>
     </g>
     <g id="text_1">
      <!-- $\mathdefault{10^{-3}}$ -->
      <g transform="translate(55.19225 293.989187) scale(0.18 -0.18)">
       <defs>
        <path id="DejaVuSans-31" d="M 794 531 
L 1825 531 
L 1825 4091 
L 703 3866 
L 703 4441 
L 1819 4666 
L 2450 4666 
L 2450 531 
L 3481 531 
L 3481 0 
L 794 0 
L 794 531 
z
" transform="scale(0.015625)"/>
        <path id="DejaVuSans-30" d="M 2034 4250 
Q 1547 4250 1301 3770 
Q 1056 3291 1056 2328 
Q 1056 1369 1301 889 
Q 1547 409 2034 409 
Q 2525 409 2770 889 
Q 3016 1369 3016 2328 
Q 3016 3291 2770 3770 
Q 2525 4250 2034 4250 
z
M 2034 4750 
Q 2819 4750 3233 4129 
Q 3647 3509 3647 2328 
Q 3647 1150 3233 529 
Q 2819 -91 2034 -91 
Q 1250 -91 836 529 
Q 422 1150 422 2328 
Q 422 3509 836 4129 
Q 1250 4750 2034 4750 
z
" transform="scale(0.015625)"/>
        <path id="DejaVuSans-2212" d="M 678 2272 
L 4684 2272 
L 4684 1741 
L 678 1741 
L 678 2272 
z
" transform="scale(0.015625)"/>
        <path id="DejaVuSans-33" d="M 2597 2516 
Q 3050 2419 3304 2112 
Q 3559 1806 3559 1356 
Q 3559 666 3084 287 
Q 2609 -91 1734 -91 
Q 1441 -91 1130 -33 
Q 819 25 488 141 
L 488 750 
Q 750 597 1062 519 
Q 1375 441 1716 441 
Q 2309 441 2620 675 
Q 2931 909 2931 1356 
Q 2931 1769 2642 2001 
Q 2353 2234 1838 2234 
L 1294 2234 
L 1294 2753 
L 1863 2753 
Q 2328 2753 2575 2939 
Q 2822 3125 2822 3475 
Q 2822 3834 2567 4026 
Q 2313 4219 1838 4219 
Q 1578 4219 1281 4162 
Q 984 4106 628 3988 
L 628 4550 
Q 988 4650 1302 4700 
Q 1616 4750 1894 4750 
Q 2613 4750 3031 4423 
Q 3450 4097 3450 3541 
Q 3450 3153 3228 2886 
Q 3006 2619 2597 2516 
z
" transform="scale(0.015625)"/>
       </defs>
       <use xlink:href="#DejaVuSans-31" transform="translate(0 0.765625)"/>
       <use xlink:href="#DejaVuSans-30" transform="translate(63.623047 0.765625)"/>
       <use xlink:href="#DejaVuSans-2212" transform="translate(128.203125 39.046875) scale(0.7)"/>
       <use xlink:href="#DejaVuSans-33" transform="translate(186.855469 39.046875) scale(0.7)"/>
      </g>
     </g>
    </g>
    <g id="xtick_2">
     <g id="line2d_2">
      <g>
       <use xlink:href="#m82e95d7781" x="156.98225" y="273.312" style="stroke: #000000; stroke-width: 1.5"/>
      </g>
     </g>
     <g id="text_2">
      <!-- $\mathdefault{10^{-2}}$ -->
      <g transform="translate(135.83225 293.989187) scale(0.18 -0.18)">
       <defs>
        <path id="DejaVuSans-32" d="M 1228 531 
L 3431 531 
L 3431 0 
L 469 0 
L 469 531 
Q 828 903 1448 1529 
Q 2069 2156 2228 2338 
Q 2531 2678 2651 2914 
Q 2772 3150 2772 3378 
Q 2772 3750 2511 3984 
Q 2250 4219 1831 4219 
Q 1534 4219 1204 4116 
Q 875 4013 500 3803 
L 500 4441 
Q 881 4594 1212 4672 
Q 1544 4750 1819 4750 
Q 2544 4750 2975 4387 
Q 3406 4025 3406 3419 
Q 3406 3131 3298 2873 
Q 3191 2616 2906 2266 
Q 2828 2175 2409 1742 
Q 1991 1309 1228 531 
z
" transform="scale(0.015625)"/>
       </defs>
       <use xlink:href="#DejaVuSans-31" transform="translate(0 0.765625)"/>
       <use xlink:href="#DejaVuSans-30" transform="translate(63.623047 0.765625)"/>
       <use xlink:href="#DejaVuSans-2212" transform="translate(128.203125 39.046875) scale(0.7)"/>
       <use xlink:href="#DejaVuSans-32" transform="translate(186.855469 39.046875) scale(0.7)"/>
      </g>
     </g>
    </g>
    <g id="xtick_3">
     <g id="line2d_3">
      <g>
       <use xlink:href="#m82e95d7781" x="237.62225" y="273.312" style="stroke: #000000; stroke-width: 1.5"/>
      </g>
     </g>
     <g id="text_3">
      <!-- $\mathdefault{10^{-1}}$ -->
      <g transform="translate(216.47225 293.989187) scale(0.18 -0.18)">
       <use xlink:href="#DejaVuSans-31" transform="translate(0 0.684375)"/>
       <use xlink:href="#DejaVuSans-30" transform="translate(63.623047 0.684375)"/>
       <use xlink:href="#DejaVuSans-2212" transform="translate(128.203125 38.965625) scale(0.7)"/>
       <use xlink:href="#DejaVuSans-31" transform="translate(186.855469 38.965625) scale(0.7)"/>
      </g>
     </g>
    </g>
    <g id="xtick_4">
     <g id="line2d_4">
      <g>
       <use xlink:href="#m82e95d7781" x="318.26225" y="273.312" style="stroke: #000000; stroke-width: 1.5"/>
      </g>
     </g>
     <g id="text_4">
      <!-- $\mathdefault{10^{0}}$ -->
      <g transform="translate(302.42225 293.989187) scale(0.18 -0.18)">
       <use xlink:href="#DejaVuSans-31" transform="translate(0 0.765625)"/>
       <use xlink:href="#DejaVuSans-30" transform="translate(63.623047 0.765625)"/>
       <use xlink:href="#DejaVuSans-30" transform="translate(128.203125 39.046875) scale(0.7)"/>
      </g>
     </g>
    </g>
    <g id="xtick_5">
     <g id="line2d_5">
      <defs>
       <path id="m04d09ce6a4" d="M 0 0 
L 0 2 
" style="stroke: #000000; stroke-width: 0.6"/>
      </defs>
      <g>
       <use xlink:href="#m04d09ce6a4" x="68.527427" y="273.312" style="stroke: #000000; stroke-width: 0.6"/>
      </g>
     </g>
    </g>
    <g id="xtick_6">
     <g id="line2d_6">
      <g>
       <use xlink:href="#m04d09ce6a4" x="72.652366" y="273.312" style="stroke: #000000; stroke-width: 0.6"/>
      </g>
     </g>
    </g>
    <g id="xtick_7">
     <g id="line2d_7">
      <g>
       <use xlink:href="#m04d09ce6a4" x="100.617309" y="273.312" style="stroke: #000000; stroke-width: 0.6"/>
      </g>
     </g>
    </g>
    <g id="xtick_8">
     <g id="line2d_8">
      <g>
       <use xlink:href="#m04d09ce6a4" x="114.817308" y="273.312" style="stroke: #000000; stroke-width: 0.6"/>
      </g>
     </g>
    </g>
    <g id="xtick_9">
     <g id="line2d_9">
      <g>
       <use xlink:href="#m04d09ce6a4" x="124.892368" y="273.312" style="stroke: #000000; stroke-width: 0.6"/>
      </g>
     </g>
    </g>
    <g id="xtick_10">
     <g id="line2d_10">
      <g>
       <use xlink:href="#m04d09ce6a4" x="132.707191" y="273.312" style="stroke: #000000; stroke-width: 0.6"/>
      </g>
     </g>
    </g>
    <g id="xtick_11">
     <g id="line2d_11">
      <g>
       <use xlink:href="#m04d09ce6a4" x="139.092367" y="273.312" style="stroke: #000000; stroke-width: 0.6"/>
      </g>
     </g>
    </g>
    <g id="xtick_12">
     <g id="line2d_12">
      <g>
       <use xlink:href="#m04d09ce6a4" x="144.490956" y="273.312" style="stroke: #000000; stroke-width: 0.6"/>
      </g>
     </g>
    </g>
    <g id="xtick_13">
     <g id="line2d_13">
      <g>
       <use xlink:href="#m04d09ce6a4" x="149.167427" y="273.312" style="stroke: #000000; stroke-width: 0.6"/>
      </g>
     </g>
    </g>
    <g id="xtick_14">
     <g id="line2d_14">
      <g>
       <use xlink:href="#m04d09ce6a4" x="153.292366" y="273.312" style="stroke: #000000; stroke-width: 0.6"/>
      </g>
     </g>
    </g>
    <g id="xtick_15">
     <g id="line2d_15">
      <g>
       <use xlink:href="#m04d09ce6a4" x="181.257309" y="273.312" style="stroke: #000000; stroke-width: 0.6"/>
      </g>
     </g>
    </g>
    <g id="xtick_16">
     <g id="line2d_16">
      <g>
       <use xlink:href="#m04d09ce6a4" x="195.457308" y="273.312" style="stroke: #000000; stroke-width: 0.6"/>
      </g>
     </g>
    </g>
    <g id="xtick_17">
     <g id="line2d_17">
      <g>
       <use xlink:href="#m04d09ce6a4" x="205.532368" y="273.312" style="stroke: #000000; stroke-width: 0.6"/>
      </g>
     </g>
    </g>
    <g id="xtick_18">
     <g id="line2d_18">
      <g>
       <use xlink:href="#m04d09ce6a4" x="213.347191" y="273.312" style="stroke: #000000; stroke-width: 0.6"/>
      </g>
     </g>
    </g>
    <g id="xtick_19">
     <g id="line2d_19">
      <g>
       <use xlink:href="#m04d09ce6a4" x="219.732367" y="273.312" style="stroke: #000000; stroke-width: 0.6"/>
      </g>
     </g>
    </g>
    <g id="xtick_20">
     <g id="line2d_20">
      <g>
       <use xlink:href="#m04d09ce6a4" x="225.130956" y="273.312" style="stroke: #000000; stroke-width: 0.6"/>
      </g>
     </g>
    </g>
    <g id="xtick_21">
     <g id="line2d_21">
      <g>
       <use xlink:href="#m04d09ce6a4" x="229.807427" y="273.312" style="stroke: #000000; stroke-width: 0.6"/>
      </g>
     </g>
    </g>
    <g id="xtick_22">
     <g id="line2d_22">
      <g>
       <use xlink:href="#m04d09ce6a4" x="233.932366" y="273.312" style="stroke: #000000; stroke-width: 0.6"/>
      </g>
     </g>
    </g>
    <g id="xtick_23">
     <g id="line2d_23">
      <g>
       <use xlink:href="#m04d09ce6a4" x="261.897309" y="273.312" style="stroke: #000000; stroke-width: 0.6"/>
      </g>
     </g>
    </g>
    <g id="xtick_24">
     <g id="line2d_24">
      <g>
       <use xlink:href="#m04d09ce6a4" x="276.097308" y="273.312" style="stroke: #000000; stroke-width: 0.6"/>
      </g>
     </g>
    </g>
    <g id="xtick_25">
     <g id="line2d_25">
      <g>
       <use xlink:href="#m04d09ce6a4" x="286.172368" y="273.312" style="stroke: #000000; stroke-width: 0.6"/>
      </g>
     </g>
    </g>
    <g id="xtick_26">
     <g id="line2d_26">
      <g>
       <use xlink:href="#m04d09ce6a4" x="293.987191" y="273.312" style="stroke: #000000; stroke-width: 0.6"/>
      </g>
     </g>
    </g>
    <g id="xtick_27">
     <g id="line2d_27">
      <g>
       <use xlink:href="#m04d09ce6a4" x="300.372367" y="273.312" style="stroke: #000000; stroke-width: 0.6"/>
      </g>
     </g>
    </g>
    <g id="xtick_28">
     <g id="line2d_28">
      <g>
       <use xlink:href="#m04d09ce6a4" x="305.770956" y="273.312" style="stroke: #000000; stroke-width: 0.6"/>
      </g>
     </g>
    </g>
    <g id="xtick_29">
     <g id="line2d_29">
      <g>
       <use xlink:href="#m04d09ce6a4" x="310.447427" y="273.312" style="stroke: #000000; stroke-width: 0.6"/>
      </g>
     </g>
    </g>
    <g id="xtick_30">
     <g id="line2d_30">
      <g>
       <use xlink:href="#m04d09ce6a4" x="314.572366" y="273.312" style="stroke: #000000; stroke-width: 0.6"/>
      </g>
     </g>
    </g>
    <g id="text_5">
     <!-- α -->
     <g transform="translate(191.369281 315.409812) scale(0.18 -0.18)">
      <defs>
       <path id="DejaVuSans-3b1" d="M 2644 1628 
L 2506 2350 
Q 2366 3091 1809 3091 
Q 1391 3091 1200 2747 
Q 959 2316 959 1747 
Q 959 1059 1194 731 
Q 1431 397 1809 397 
Q 2228 397 2453 1063 
L 2644 1628 
z
M 2966 2584 
L 3275 3500 
L 3788 3500 
L 3147 1603 
L 3272 919 
Q 3300 766 3409 638 
Q 3538 488 3638 488 
L 3913 488 
L 3913 0 
L 3569 0 
Q 3275 0 3013 263 
Q 2884 394 2831 669 
Q 2688 322 2394 50 
Q 2256 -78 1809 -78 
Q 1075 -78 719 397 
Q 353 888 353 1747 
Q 353 2666 750 3097 
Q 1191 3578 1809 3578 
Q 2781 3578 2966 2584 
z
" transform="scale(0.015625)"/>
      </defs>
      <use xlink:href="#DejaVuSans-3b1"/>
     </g>
    </g>
   </g>
   <g id="matplotlib.axis_2">
    <g id="ytick_1">
     <g id="line2d_31">
      <defs>
       <path id="mbecf69e2ab" d="M 0 0 
L -3.5 0 
" style="stroke: #000000; stroke-width: 1.5"/>
      </defs>
      <g>
       <use xlink:href="#mbecf69e2ab" x="64.24625" y="236.023102" style="stroke: #000000; stroke-width: 1.5"/>
      </g>
     </g>
     <g id="text_6">
      <!-- 1.0 -->
      <g transform="translate(28.620625 242.861695) scale(0.18 -0.18)">
       <defs>
        <path id="DejaVuSans-2e" d="M 684 794 
L 1344 794 
L 1344 0 
L 684 0 
L 684 794 
z
" transform="scale(0.015625)"/>
       </defs>
       <use xlink:href="#DejaVuSans-31"/>
       <use xlink:href="#DejaVuSans-2e" transform="translate(63.623047 0)"/>
       <use xlink:href="#DejaVuSans-30" transform="translate(95.410156 0)"/>
      </g>
     </g>
    </g>
    <g id="ytick_2">
     <g id="line2d_32">
      <g>
       <use xlink:href="#mbecf69e2ab" x="64.24625" y="193.938631" style="stroke: #000000; stroke-width: 1.5"/>
      </g>
     </g>
     <g id="text_7">
      <!-- 1.5 -->
      <g transform="translate(28.620625 200.777224) scale(0.18 -0.18)">
       <defs>
        <path id="DejaVuSans-35" d="M 691 4666 
L 3169 4666 
L 3169 4134 
L 1269 4134 
L 1269 2991 
Q 1406 3038 1543 3061 
Q 1681 3084 1819 3084 
Q 2600 3084 3056 2656 
Q 3513 2228 3513 1497 
Q 3513 744 3044 326 
Q 2575 -91 1722 -91 
Q 1428 -91 1123 -41 
Q 819 9 494 109 
L 494 744 
Q 775 591 1075 516 
Q 1375 441 1709 441 
Q 2250 441 2565 725 
Q 2881 1009 2881 1497 
Q 2881 1984 2565 2268 
Q 2250 2553 1709 2553 
Q 1456 2553 1204 2497 
Q 953 2441 691 2322 
L 691 4666 
z
" transform="scale(0.015625)"/>
       </defs>
       <use xlink:href="#DejaVuSans-31"/>
       <use xlink:href="#DejaVuSans-2e" transform="translate(63.623047 0)"/>
       <use xlink:href="#DejaVuSans-35" transform="translate(95.410156 0)"/>
      </g>
     </g>
    </g>
    <g id="ytick_3">
     <g id="line2d_33">
      <g>
       <use xlink:href="#mbecf69e2ab" x="64.24625" y="151.85416" style="stroke: #000000; stroke-width: 1.5"/>
      </g>
     </g>
     <g id="text_8">
      <!-- 2.0 -->
      <g transform="translate(28.620625 158.692753) scale(0.18 -0.18)">
       <use xlink:href="#DejaVuSans-32"/>
       <use xlink:href="#DejaVuSans-2e" transform="translate(63.623047 0)"/>
       <use xlink:href="#DejaVuSans-30" transform="translate(95.410156 0)"/>
      </g>
     </g>
    </g>
    <g id="ytick_4">
     <g id="line2d_34">
      <g>
       <use xlink:href="#mbecf69e2ab" x="64.24625" y="109.769689" style="stroke: #000000; stroke-width: 1.5"/>
      </g>
     </g>
     <g id="text_9">
      <!-- 2.5 -->
      <g transform="translate(28.620625 116.608282) scale(0.18 -0.18)">
       <use xlink:href="#DejaVuSans-32"/>
       <use xlink:href="#DejaVuSans-2e" transform="translate(63.623047 0)"/>
       <use xlink:href="#DejaVuSans-35" transform="translate(95.410156 0)"/>
      </g>
     </g>
    </g>
    <g id="ytick_5">
     <g id="line2d_35">
      <g>
       <use xlink:href="#mbecf69e2ab" x="64.24625" y="67.685218" style="stroke: #000000; stroke-width: 1.5"/>
      </g>
     </g>
     <g id="text_10">
      <!-- 3.0 -->
      <g transform="translate(28.620625 74.523812) scale(0.18 -0.18)">
       <use xlink:href="#DejaVuSans-33"/>
       <use xlink:href="#DejaVuSans-2e" transform="translate(63.623047 0)"/>
       <use xlink:href="#DejaVuSans-30" transform="translate(95.410156 0)"/>
      </g>
     </g>
    </g>
    <g id="ytick_6">
     <g id="line2d_36">
      <g>
       <use xlink:href="#mbecf69e2ab" x="64.24625" y="25.600747" style="stroke: #000000; stroke-width: 1.5"/>
      </g>
     </g>
     <g id="text_11">
      <!-- 3.5 -->
      <g transform="translate(28.620625 32.439341) scale(0.18 -0.18)">
       <use xlink:href="#DejaVuSans-33"/>
       <use xlink:href="#DejaVuSans-2e" transform="translate(63.623047 0)"/>
       <use xlink:href="#DejaVuSans-35" transform="translate(95.410156 0)"/>
      </g>
     </g>
    </g>
    <g id="text_12">
     <!-- RMSE -->
     <g transform="translate(20.877188 165.675375) rotate(-90) scale(0.18 -0.18)">
      <defs>
       <path id="DejaVuSans-52" d="M 2841 2188 
Q 3044 2119 3236 1894 
Q 3428 1669 3622 1275 
L 4263 0 
L 3584 0 
L 2988 1197 
Q 2756 1666 2539 1819 
Q 2322 1972 1947 1972 
L 1259 1972 
L 1259 0 
L 628 0 
L 628 4666 
L 2053 4666 
Q 2853 4666 3247 4331 
Q 3641 3997 3641 3322 
Q 3641 2881 3436 2590 
Q 3231 2300 2841 2188 
z
M 1259 4147 
L 1259 2491 
L 2053 2491 
Q 2509 2491 2742 2702 
Q 2975 2913 2975 3322 
Q 2975 3731 2742 3939 
Q 2509 4147 2053 4147 
L 1259 4147 
z
" transform="scale(0.015625)"/>
       <path id="DejaVuSans-4d" d="M 628 4666 
L 1569 4666 
L 2759 1491 
L 3956 4666 
L 4897 4666 
L 4897 0 
L 4281 0 
L 4281 4097 
L 3078 897 
L 2444 897 
L 1241 4097 
L 1241 0 
L 628 0 
L 628 4666 
z
" transform="scale(0.015625)"/>
       <path id="DejaVuSans-53" d="M 3425 4513 
L 3425 3897 
Q 3066 4069 2747 4153 
Q 2428 4238 2131 4238 
Q 1616 4238 1336 4038 
Q 1056 3838 1056 3469 
Q 1056 3159 1242 3001 
Q 1428 2844 1947 2747 
L 2328 2669 
Q 3034 2534 3370 2195 
Q 3706 1856 3706 1288 
Q 3706 609 3251 259 
Q 2797 -91 1919 -91 
Q 1588 -91 1214 -16 
Q 841 59 441 206 
L 441 856 
Q 825 641 1194 531 
Q 1563 422 1919 422 
Q 2459 422 2753 634 
Q 3047 847 3047 1241 
Q 3047 1584 2836 1778 
Q 2625 1972 2144 2069 
L 1759 2144 
Q 1053 2284 737 2584 
Q 422 2884 422 3419 
Q 422 4038 858 4394 
Q 1294 4750 2059 4750 
Q 2388 4750 2728 4690 
Q 3069 4631 3425 4513 
z
" transform="scale(0.015625)"/>
       <path id="DejaVuSans-45" d="M 628 4666 
L 3578 4666 
L 3578 4134 
L 1259 4134 
L 1259 2753 
L 3481 2753 
L 3481 2222 
L 1259 2222 
L 1259 531 
L 3634 531 
L 3634 0 
L 628 0 
L 628 4666 
z
" transform="scale(0.015625)"/>
      </defs>
      <use xlink:href="#DejaVuSans-52"/>
      <use xlink:href="#DejaVuSans-4d" transform="translate(69.482422 0)"/>
      <use xlink:href="#DejaVuSans-53" transform="translate(155.761719 0)"/>
      <use xlink:href="#DejaVuSans-45" transform="translate(219.238281 0)"/>
     </g>
    </g>
   </g>
   <g id="line2d_37">
    <path d="M 318.26225 145.264365 
L 315.818614 149.630328 
L 313.374977 153.366311 
L 310.931341 156.560071 
L 308.487705 159.266667 
L 306.044068 161.542087 
L 303.600432 163.438321 
L 301.156795 165.003099 
L 298.713159 166.27985 
L 296.269523 166.876608 
L 293.825886 168.427327 
L 291.38225 170.843145 
L 288.938614 172.920397 
L 286.494977 174.697525 
L 284.051341 176.211182 
L 281.607705 177.493044 
L 279.164068 178.573242 
L 276.720432 179.439675 
L 274.276795 179.941784 
L 271.833159 180.650703 
L 269.389523 181.314451 
L 266.945886 181.614839 
L 264.50225 181.877681 
L 262.058614 183.85215 
L 259.614977 185.64904 
L 257.171341 187.434668 
L 254.727705 189.069602 
L 252.284068 191.081902 
L 249.840432 193.670213 
L 247.396795 195.938733 
L 244.953159 197.300091 
L 242.509523 198.592816 
L 240.065886 200.127933 
L 237.62225 202.492015 
L 235.178614 204.55966 
L 232.734977 206.000411 
L 230.291341 207.203475 
L 227.847705 208.724269 
L 225.404068 210.196679 
L 222.960432 211.496212 
L 220.516795 212.655084 
L 218.073159 213.549588 
L 215.629523 214.419265 
L 213.185886 215.145995 
L 210.74225 215.773481 
L 208.298614 216.573066 
L 205.854977 217.733077 
L 203.411341 217.865642 
L 200.967705 218.522998 
L 198.524068 219.980666 
L 196.080432 221.276583 
L 193.636795 222.576161 
L 191.193159 223.727474 
L 188.749523 224.717014 
L 186.305886 225.454238 
L 183.86225 226.410553 
L 181.418614 227.656607 
L 178.974977 228.538649 
L 176.531341 229.168872 
L 174.087705 229.702924 
L 171.644068 230.131479 
L 169.200432 230.513878 
L 166.756795 230.818815 
L 164.313159 231.603576 
L 161.869523 233.563604 
L 159.425886 235.376328 
L 156.98225 237.016817 
L 154.538614 238.199772 
L 152.094977 239.33406 
L 149.651341 240.52981 
L 147.207705 241.95605 
L 144.764068 243.52122 
L 142.320432 244.863492 
L 139.876795 246.050616 
L 137.433159 247.100358 
L 134.989523 248.02897 
L 132.545886 248.768976 
L 130.10225 249.097885 
L 127.658614 249.13612 
L 125.214977 248.919609 
L 122.771341 248.611728 
L 120.327705 248.29965 
L 117.884068 247.940764 
L 115.440432 247.584802 
L 112.996795 247.376859 
L 110.553159 247.282687 
L 108.109523 247.329534 
L 105.665886 247.267756 
L 103.22225 245.719915 
L 100.778614 245.373247 
L 98.334977 245.96988 
L 95.891341 246.615237 
L 93.447705 247.138344 
L 91.004068 247.614094 
L 88.560432 247.614293 
L 86.116795 247.521422 
L 83.673159 247.130595 
L 81.229523 243.497134 
L 78.785886 234.067979 
L 76.34225 230.294226 
" clip-path="url(#p6b5ed57344)" style="fill: none; stroke-dasharray: 2,3.3; stroke-dashoffset: 0; stroke: #1f77b4; stroke-width: 2"/>
   </g>
   <g id="line2d_38">
    <path d="M 318.26225 135.82706 
L 315.818614 140.527078 
L 313.374977 146.157252 
L 310.931341 151.636921 
L 308.487705 156.665809 
L 306.044068 164.255812 
L 303.600432 171.249165 
L 301.156795 177.637341 
L 298.713159 183.460944 
L 296.269523 188.752918 
L 293.825886 193.344928 
L 291.38225 197.495899 
L 288.938614 201.240728 
L 286.494977 204.612516 
L 284.051341 207.642732 
L 281.607705 210.251702 
L 279.164068 212.514007 
L 276.720432 214.693232 
L 274.276795 216.829447 
L 271.833159 219.64576 
L 269.389523 222.244491 
L 266.945886 224.435092 
L 264.50225 226.09728 
L 262.058614 227.343962 
L 259.614977 228.197883 
L 257.171341 228.797696 
L 254.727705 229.207707 
L 252.284068 229.458608 
L 249.840432 229.296206 
L 247.396795 228.832928 
L 244.953159 228.296914 
L 242.509523 227.707895 
L 240.065886 227.080327 
L 237.62225 226.433334 
L 235.178614 225.73123 
L 232.734977 225.088115 
L 230.291341 225.343183 
L 227.847705 225.314436 
L 225.404068 225.156575 
L 222.960432 224.875572 
L 220.516795 224.890778 
L 218.073159 225.620056 
L 215.629523 226.306419 
L 213.185886 227.094995 
L 210.74225 227.7456 
L 208.298614 228.191162 
L 205.854977 230.185684 
L 203.411341 230.950108 
L 200.967705 231.399989 
L 198.524068 231.756733 
L 196.080432 232.052546 
L 193.636795 232.313729 
L 191.193159 233.72294 
L 188.749523 235.041522 
L 186.305886 236.192134 
L 183.86225 237.241064 
L 181.418614 238.130382 
L 178.974977 238.919249 
L 176.531341 239.618585 
L 174.087705 239.899227 
L 171.644068 239.980657 
L 169.200432 240.691741 
L 166.756795 241.867663 
L 164.313159 242.992423 
L 161.869523 243.388002 
L 159.425886 244.050602 
L 156.98225 244.421531 
L 154.538614 244.179283 
L 152.094977 243.921666 
L 149.651341 244.078048 
L 147.207705 244.468627 
L 144.764068 244.802591 
L 142.320432 245.064363 
L 139.876795 245.323223 
L 137.433159 245.519186 
L 134.989523 245.604424 
L 132.545886 245.531457 
L 130.10225 245.508526 
L 127.658614 245.386021 
L 125.214977 245.148752 
L 122.771341 244.842925 
L 120.327705 244.455645 
L 117.884068 243.902497 
L 115.440432 243.408285 
L 112.996795 243.014304 
L 110.553159 242.779167 
L 108.109523 242.522464 
L 105.665886 242.14138 
L 103.22225 241.740849 
L 100.778614 241.757356 
L 98.334977 241.771073 
L 95.891341 241.98075 
L 93.447705 242.123837 
L 91.004068 241.470266 
L 88.560432 241.026453 
L 86.116795 240.639219 
L 83.673159 240.231552 
L 81.229523 239.804967 
L 78.785886 239.067567 
L 76.34225 238.363811 
" clip-path="url(#p6b5ed57344)" style="fill: none; stroke-dasharray: 2,3.3; stroke-dashoffset: 0; stroke: #ff7f0e; stroke-width: 2"/>
   </g>
   <g id="line2d_39">
    <path d="M 318.26225 133.049898 
L 315.818614 136.275342 
L 313.374977 140.339407 
L 310.931341 144.120639 
L 308.487705 147.523734 
L 306.044068 150.583773 
L 303.600432 155.967057 
L 301.156795 162.086117 
L 298.713159 167.473025 
L 296.269523 172.294199 
L 293.825886 176.474254 
L 291.38225 179.846143 
L 288.938614 183.033335 
L 286.494977 186.197686 
L 284.051341 188.834196 
L 281.607705 190.825775 
L 279.164068 192.280717 
L 276.720432 193.519851 
L 274.276795 195.899369 
L 271.833159 197.161853 
L 269.389523 199.556813 
L 266.945886 201.844818 
L 264.50225 203.835549 
L 262.058614 205.562556 
L 259.614977 207.034163 
L 257.171341 208.279687 
L 254.727705 209.179561 
L 252.284068 210.015933 
L 249.840432 212.710099 
L 247.396795 215.108678 
L 244.953159 217.086415 
L 242.509523 218.786939 
L 240.065886 220.27987 
L 237.62225 221.586445 
L 235.178614 222.728744 
L 232.734977 223.847057 
L 230.291341 225.244334 
L 227.847705 226.744865 
L 225.404068 227.871691 
L 222.960432 226.65074 
L 220.516795 227.050636 
L 218.073159 228.230969 
L 215.629523 228.558736 
L 213.185886 229.125559 
L 210.74225 229.577807 
L 208.298614 229.095784 
L 205.854977 228.465834 
L 203.411341 216.715553 
L 200.967705 215.13891 
L 198.524068 214.029386 
L 196.080432 213.755242 
L 193.636795 213.141268 
L 191.193159 213.02965 
L 188.749523 212.604785 
L 186.305886 212.509885 
L 183.86225 212.411215 
L 181.418614 212.265587 
L 178.974977 212.082024 
L 176.531341 211.847023 
L 174.087705 210.070409 
L 171.644068 207.735962 
L 169.200432 205.639948 
L 166.756795 206.201999 
L 164.313159 217.754605 
L 161.869523 217.147314 
L 159.425886 216.220067 
L 156.98225 215.162561 
L 154.538614 215.538853 
L 152.094977 215.478 
L 149.651341 213.454128 
L 147.207705 209.374577 
L 144.764068 205.435293 
L 142.320432 202.346897 
L 139.876795 200.211108 
L 137.433159 198.219268 
L 134.989523 196.636052 
L 132.545886 195.122369 
L 130.10225 194.529121 
L 127.658614 195.015483 
L 125.214977 197.039303 
L 122.771341 198.233371 
L 120.327705 198.624348 
L 117.884068 198.282296 
L 115.440432 197.236889 
L 112.996795 195.720842 
L 110.553159 193.180721 
L 108.109523 189.643979 
L 105.665886 185.880229 
L 103.22225 183.073125 
L 100.778614 184.482114 
L 98.334977 185.774156 
L 95.891341 188.793189 
L 93.447705 188.419825 
L 91.004068 187.005736 
L 88.560432 186.526891 
L 86.116795 186.00123 
L 83.673159 185.298918 
L 81.229523 184.441424 
L 78.785886 183.571073 
L 76.34225 182.510382 
" clip-path="url(#p6b5ed57344)" style="fill: none; stroke-dasharray: 2,3.3; stroke-dashoffset: 0; stroke: #2ca02c; stroke-width: 2"/>
   </g>
   <g id="line2d_40">
    <path d="M 318.26225 135.220339 
L 315.818614 140.88102 
L 313.374977 146.288349 
L 310.931341 151.033455 
L 308.487705 155.252184 
L 306.044068 158.992739 
L 303.600432 162.299731 
L 301.156795 165.399398 
L 298.713159 168.29353 
L 296.269523 170.890218 
L 293.825886 173.218212 
L 291.38225 175.400139 
L 288.938614 179.254856 
L 286.494977 182.99499 
L 284.051341 186.417044 
L 281.607705 189.546623 
L 279.164068 192.407699 
L 276.720432 195.15779 
L 274.276795 197.445085 
L 271.833159 200.282483 
L 269.389523 203.331792 
L 266.945886 206.156607 
L 264.50225 208.731899 
L 262.058614 211.078279 
L 259.614977 213.215646 
L 257.171341 215.161839 
L 254.727705 217.106664 
L 252.284068 218.87587 
L 249.840432 220.448597 
L 247.396795 221.310696 
L 244.953159 221.983461 
L 242.509523 222.576422 
L 240.065886 223.099548 
L 237.62225 223.612367 
L 235.178614 226.491031 
L 232.734977 229.040628 
L 230.291341 231.055233 
L 227.847705 232.533494 
L 225.404068 233.889232 
L 222.960432 235.324091 
L 220.516795 238.156485 
L 218.073159 239.450581 
L 215.629523 238.682972 
L 213.185886 237.66222 
L 210.74225 236.550679 
L 208.298614 235.387876 
L 205.854977 234.161579 
L 203.411341 232.807726 
L 200.967705 231.467738 
L 198.524068 232.006484 
L 196.080432 232.907962 
L 193.636795 233.771272 
L 191.193159 235.314505 
L 188.749523 236.853788 
L 186.305886 237.986121 
L 183.86225 238.84005 
L 181.418614 239.61441 
L 178.974977 241.557371 
L 176.531341 242.343184 
L 174.087705 242.440598 
L 171.644068 242.231998 
L 169.200432 241.296091 
L 166.756795 242.582131 
L 164.313159 243.038171 
L 161.869523 243.950928 
L 159.425886 247.432385 
L 156.98225 256.430966 
L 154.538614 256.689815 
L 152.094977 256.89793 
L 149.651341 257.08583 
L 147.207705 257.409932 
L 144.764068 257.507031 
L 142.320432 256.915299 
L 139.876795 256.269579 
L 137.433159 255.596251 
L 134.989523 254.049515 
L 132.545886 252.254018 
L 130.10225 250.874241 
L 127.658614 249.541511 
L 125.214977 248.25779 
L 122.771341 247.102122 
L 120.327705 246.084402 
L 117.884068 245.132426 
L 115.440432 239.491692 
L 112.996795 225.28774 
L 110.553159 205.293614 
L 108.109523 185.351546 
L 105.665886 168.186734 
L 103.22225 150.54654 
L 100.778614 133.969356 
L 98.334977 118.387641 
L 95.891341 103.906159 
L 93.447705 90.599651 
L 91.004068 75.970371 
L 88.560432 61.545896 
L 86.116795 48.402742 
L 83.673159 37.083346 
L 81.229523 25.917493 
L 78.785886 19.296 
L 76.34225 47.100645 
" clip-path="url(#p6b5ed57344)" style="fill: none; stroke-dasharray: 2,3.3; stroke-dashoffset: 0; stroke: #d62728; stroke-width: 2"/>
   </g>
   <g id="line2d_41">
    <path d="M 318.26225 133.108413 
L 315.818614 137.520202 
L 313.374977 141.475315 
L 310.931341 145.00337 
L 308.487705 148.145299 
L 306.044068 150.943494 
L 303.600432 157.310634 
L 301.156795 163.176503 
L 298.713159 168.631841 
L 296.269523 173.546644 
L 293.825886 177.963968 
L 291.38225 182.558399 
L 288.938614 187.347887 
L 286.494977 193.266615 
L 284.051341 198.538873 
L 281.607705 203.20541 
L 279.164068 207.173776 
L 276.720432 211.026778 
L 274.276795 215.230405 
L 271.833159 219.375334 
L 269.389523 222.86544 
L 266.945886 225.360827 
L 264.50225 227.294685 
L 262.058614 228.807044 
L 259.614977 229.966934 
L 257.171341 231.401843 
L 254.727705 232.858273 
L 252.284068 233.925148 
L 249.840432 234.347498 
L 247.396795 234.476962 
L 244.953159 234.460117 
L 242.509523 234.324486 
L 240.065886 234.094949 
L 237.62225 233.895134 
L 235.178614 233.711306 
L 232.734977 233.473099 
L 230.291341 233.512871 
L 227.847705 234.043359 
L 225.404068 234.440421 
L 222.960432 234.804316 
L 220.516795 234.601148 
L 218.073159 234.297666 
L 215.629523 233.952151 
L 213.185886 233.82383 
L 210.74225 234.109595 
L 208.298614 234.729894 
L 205.854977 235.469146 
L 203.411341 236.134235 
L 200.967705 236.73993 
L 198.524068 237.342462 
L 196.080432 237.920494 
L 193.636795 238.337763 
L 191.193159 238.790927 
L 188.749523 239.10728 
L 186.305886 239.476308 
L 183.86225 239.679396 
L 181.418614 239.664173 
L 178.974977 239.553918 
L 176.531341 239.270697 
L 174.087705 238.825676 
L 171.644068 238.423989 
L 169.200432 237.987379 
L 166.756795 237.922456 
L 164.313159 238.218489 
L 161.869523 238.676827 
L 159.425886 239.0212 
L 156.98225 239.299274 
L 154.538614 239.597019 
L 152.094977 239.894971 
L 149.651341 240.209983 
L 147.207705 240.466028 
L 144.764068 240.67197 
L 142.320432 240.92735 
L 139.876795 241.159943 
L 137.433159 241.365512 
L 134.989523 241.547865 
L 132.545886 241.703215 
L 130.10225 241.787435 
L 127.658614 241.748769 
L 125.214977 241.700374 
L 122.771341 241.654617 
L 120.327705 241.603587 
L 117.884068 241.549166 
L 115.440432 241.491436 
L 112.996795 241.409586 
L 110.553159 241.30617 
L 108.109523 241.347932 
L 105.665886 241.594205 
L 103.22225 241.769678 
L 100.778614 241.919258 
L 98.334977 242.105242 
L 95.891341 242.26559 
L 93.447705 242.399889 
L 91.004068 242.509494 
L 88.560432 242.603885 
L 86.116795 242.669118 
L 83.673159 242.648936 
L 81.229523 242.832013 
L 78.785886 242.844636 
L 76.34225 242.812766 
" clip-path="url(#p6b5ed57344)" style="fill: none; stroke-dasharray: 2,3.3; stroke-dashoffset: 0; stroke: #9467bd; stroke-width: 2"/>
   </g>
   <g id="line2d_42">
    <path d="M 318.26225 110.411959 
L 315.818614 112.497383 
L 313.374977 114.838225 
L 310.931341 118.350032 
L 308.487705 122.210712 
L 306.044068 125.599383 
L 303.600432 128.291763 
L 301.156795 130.660077 
L 298.713159 132.629433 
L 296.269523 134.196735 
L 293.825886 135.553908 
L 291.38225 136.727148 
L 288.938614 137.769597 
L 286.494977 138.724118 
L 284.051341 139.732167 
L 281.607705 141.734737 
L 279.164068 143.621277 
L 276.720432 145.400852 
L 274.276795 147.075229 
L 271.833159 148.563914 
L 269.389523 150.176513 
L 266.945886 151.762212 
L 264.50225 153.726227 
L 262.058614 155.647523 
L 259.614977 157.517434 
L 257.171341 159.413749 
L 254.727705 161.520722 
L 252.284068 163.563259 
L 249.840432 164.923381 
L 247.396795 166.119224 
L 244.953159 167.195261 
L 242.509523 168.165235 
L 240.065886 169.270168 
L 237.62225 170.356969 
L 235.178614 171.300624 
L 232.734977 172.035356 
L 230.291341 172.695118 
L 227.847705 173.5998 
L 225.404068 174.41794 
L 222.960432 175.189176 
L 220.516795 176.007229 
L 218.073159 176.481538 
L 215.629523 176.838007 
L 213.185886 177.250106 
L 210.74225 177.953328 
L 208.298614 178.711299 
L 205.854977 179.417005 
L 203.411341 180.517565 
L 200.967705 181.870207 
L 198.524068 182.869409 
L 196.080432 183.676283 
L 193.636795 184.402332 
L 191.193159 185.06823 
L 188.749523 185.612281 
L 186.305886 185.812273 
L 183.86225 186.396608 
L 181.418614 186.56864 
L 178.974977 186.699635 
L 176.531341 186.799761 
L 174.087705 186.87881 
L 171.644068 186.933442 
L 169.200432 186.935727 
L 166.756795 186.904641 
L 164.313159 186.974744 
L 161.869523 187.21277 
L 159.425886 188.631382 
L 156.98225 189.948364 
L 154.538614 191.125159 
L 152.094977 192.220318 
L 149.651341 193.278384 
L 147.207705 194.29082 
L 144.764068 195.126255 
L 142.320432 195.83712 
L 139.876795 196.49683 
L 137.433159 197.111918 
L 134.989523 197.677554 
L 132.545886 198.178999 
L 130.10225 199.249329 
L 127.658614 200.563471 
L 125.214977 201.784947 
L 122.771341 202.21643 
L 120.327705 202.530367 
L 117.884068 202.826766 
L 115.440432 203.170532 
L 112.996795 203.6696 
L 110.553159 204.123132 
L 108.109523 204.544092 
L 105.665886 204.935073 
L 103.22225 205.384778 
L 100.778614 205.801862 
L 98.334977 206.115336 
L 95.891341 206.417912 
L 93.447705 206.782521 
L 91.004068 207.244642 
L 88.560432 207.676373 
L 86.116795 208.332715 
L 83.673159 209.164752 
L 81.229523 209.737554 
L 78.785886 210.300566 
L 76.34225 210.941401 
" clip-path="url(#p6b5ed57344)" style="fill: none; stroke-dasharray: 2,3.3; stroke-dashoffset: 0; stroke: #8c564b; stroke-width: 2"/>
   </g>
   <g id="line2d_43">
    <path d="M 318.26225 118.865472 
L 315.818614 119.050327 
L 313.374977 119.104475 
L 310.931341 119.05203 
L 308.487705 121.59615 
L 306.044068 125.779173 
L 303.600432 129.518421 
L 301.156795 132.856168 
L 298.713159 136.271617 
L 296.269523 139.383759 
L 293.825886 142.195537 
L 291.38225 144.735208 
L 288.938614 147.028618 
L 286.494977 150.243584 
L 284.051341 154.672736 
L 281.607705 159.348995 
L 279.164068 163.647208 
L 276.720432 167.704094 
L 274.276795 171.957018 
L 271.833159 176.344181 
L 269.389523 180.880107 
L 266.945886 184.890896 
L 264.50225 188.557391 
L 262.058614 192.181728 
L 259.614977 195.681127 
L 257.171341 198.875324 
L 254.727705 201.705621 
L 252.284068 204.394161 
L 249.840432 206.931225 
L 247.396795 209.260768 
L 244.953159 211.38761 
L 242.509523 213.302487 
L 240.065886 215.060589 
L 237.62225 217.15364 
L 235.178614 219.33893 
L 232.734977 221.352652 
L 230.291341 223.538804 
L 227.847705 226.249929 
L 225.404068 228.903819 
L 222.960432 231.099174 
L 220.516795 233.141882 
L 218.073159 235.090635 
L 215.629523 236.940211 
L 213.185886 238.369461 
L 210.74225 239.933111 
L 208.298614 241.748575 
L 205.854977 243.485565 
L 203.411341 245.319452 
L 200.967705 246.879714 
L 198.524068 248.204682 
L 196.080432 249.408624 
L 193.636795 250.449852 
L 191.193159 251.29583 
L 188.749523 252.040879 
L 186.305886 252.796304 
L 183.86225 253.623236 
L 181.418614 254.259475 
L 178.974977 254.840448 
L 176.531341 255.371804 
L 174.087705 255.848501 
L 171.644068 256.211972 
L 169.200432 256.764147 
L 166.756795 257.784604 
L 164.313159 258.636858 
L 161.869523 259.370859 
L 159.425886 260.024981 
L 156.98225 260.580207 
L 154.538614 260.970964 
L 152.094977 261.059016 
L 149.651341 261.083239 
L 147.207705 261.104129 
L 144.764068 261.042253 
L 142.320432 260.974603 
L 139.876795 260.955535 
L 137.433159 261.034623 
L 134.989523 261.105274 
L 132.545886 261.149005 
L 130.10225 261.206256 
L 127.658614 261.216 
L 125.214977 261.206442 
L 122.771341 261.18811 
L 120.327705 261.162463 
L 117.884068 261.016557 
L 115.440432 260.716855 
L 112.996795 260.434009 
L 110.553159 260.152615 
L 108.109523 259.887357 
L 105.665886 259.652474 
L 103.22225 259.484385 
L 100.778614 259.242484 
L 98.334977 259.117797 
L 95.891341 259.049357 
L 93.447705 259.121319 
L 91.004068 259.199246 
L 88.560432 259.134873 
L 86.116795 258.933913 
L 83.673159 258.832808 
L 81.229523 258.779615 
L 78.785886 258.642195 
L 76.34225 258.443843 
" clip-path="url(#p6b5ed57344)" style="fill: none; stroke-dasharray: 2,3.3; stroke-dashoffset: 0; stroke: #e377c2; stroke-width: 2"/>
   </g>
   <g id="line2d_44">
    <path d="M 318.26225 132.531849 
L 315.818614 133.845574 
L 313.374977 134.911167 
L 310.931341 137.655451 
L 308.487705 141.594328 
L 306.044068 145.898213 
L 303.600432 149.725204 
L 301.156795 153.119778 
L 298.713159 156.125965 
L 296.269523 158.782171 
L 293.825886 161.124498 
L 291.38225 165.363332 
L 288.938614 169.764567 
L 286.494977 173.514853 
L 284.051341 177.197481 
L 281.607705 180.735196 
L 279.164068 184.058101 
L 276.720432 187.171219 
L 274.276795 189.959778 
L 271.833159 192.415461 
L 269.389523 195.140072 
L 266.945886 198.212192 
L 264.50225 200.978815 
L 262.058614 203.456939 
L 259.614977 205.70861 
L 257.171341 207.681975 
L 254.727705 208.500623 
L 252.284068 208.552762 
L 249.840432 208.422387 
L 247.396795 208.168584 
L 244.953159 207.838842 
L 242.509523 207.408263 
L 240.065886 206.907221 
L 237.62225 206.459452 
L 235.178614 206.159111 
L 232.734977 205.768093 
L 230.291341 205.164944 
L 227.847705 205.010076 
L 225.404068 204.869197 
L 222.960432 204.751175 
L 220.516795 204.757436 
L 218.073159 204.784388 
L 215.629523 204.761334 
L 213.185886 204.910995 
L 210.74225 205.271334 
L 208.298614 205.581347 
L 205.854977 205.970004 
L 203.411341 206.366196 
L 200.967705 206.834882 
L 198.524068 207.247025 
L 196.080432 207.912162 
L 193.636795 208.968903 
L 191.193159 209.705453 
L 188.749523 210.232989 
L 186.305886 210.823426 
L 183.86225 211.653198 
L 181.418614 212.865759 
L 178.974977 213.755696 
L 176.531341 214.434802 
L 174.087705 215.053213 
L 171.644068 215.694437 
L 169.200432 216.312586 
L 166.756795 216.840752 
L 164.313159 217.449744 
L 161.869523 217.978823 
L 159.425886 219.445187 
L 156.98225 220.933989 
L 154.538614 222.235905 
L 152.094977 223.371678 
L 149.651341 223.878558 
L 147.207705 224.429404 
L 144.764068 224.736784 
L 142.320432 225.15938 
L 139.876795 225.751456 
L 137.433159 226.248518 
L 134.989523 226.668716 
L 132.545886 226.900464 
L 130.10225 226.937599 
L 127.658614 226.897812 
L 125.214977 226.877008 
L 122.771341 226.822039 
L 120.327705 226.371639 
L 117.884068 226.053696 
L 115.440432 225.693997 
L 112.996795 225.381861 
L 110.553159 225.032154 
L 108.109523 224.688121 
L 105.665886 224.229148 
L 103.22225 222.580116 
L 100.778614 219.943327 
L 98.334977 218.132443 
L 95.891341 216.227587 
L 93.447705 214.374567 
L 91.004068 212.711168 
L 88.560432 211.908994 
L 86.116795 211.132722 
L 83.673159 210.429734 
L 81.229523 210.011873 
L 78.785886 209.243825 
L 76.34225 208.254727 
" clip-path="url(#p6b5ed57344)" style="fill: none; stroke-dasharray: 2,3.3; stroke-dashoffset: 0; stroke: #7f7f7f; stroke-width: 2"/>
   </g>
   <g id="line2d_45">
    <path d="M 318.26225 135.316369 
L 315.818614 137.517629 
L 313.374977 140.484849 
L 310.931341 143.584946 
L 308.487705 146.461544 
L 306.044068 148.93148 
L 303.600432 151.041144 
L 301.156795 152.833654 
L 298.713159 154.348217 
L 296.269523 155.620239 
L 293.825886 156.67349 
L 291.38225 158.702681 
L 288.938614 162.217178 
L 286.494977 166.130421 
L 284.051341 169.619661 
L 281.607705 172.742343 
L 279.164068 175.402937 
L 276.720432 177.621222 
L 274.276795 179.593666 
L 271.833159 181.622009 
L 269.389523 185.072961 
L 266.945886 188.337001 
L 264.50225 191.455386 
L 262.058614 194.319671 
L 259.614977 196.950773 
L 257.171341 199.367039 
L 254.727705 202.552586 
L 252.284068 206.023311 
L 249.840432 209.17604 
L 247.396795 212.031264 
L 244.953159 214.286881 
L 242.509523 216.146976 
L 240.065886 217.782032 
L 237.62225 219.265248 
L 235.178614 221.350701 
L 232.734977 223.188165 
L 230.291341 224.772526 
L 227.847705 226.090706 
L 225.404068 227.141983 
L 222.960432 228.076736 
L 220.516795 228.90021 
L 218.073159 229.714186 
L 215.629523 230.886043 
L 213.185886 232.250968 
L 210.74225 233.893197 
L 208.298614 235.073873 
L 205.854977 235.821145 
L 203.411341 236.462556 
L 200.967705 237.021307 
L 198.524068 238.09263 
L 196.080432 239.037414 
L 193.636795 239.851111 
L 191.193159 239.948272 
L 188.749523 239.840467 
L 186.305886 239.962723 
L 183.86225 240.212483 
L 181.418614 240.308495 
L 178.974977 240.333458 
L 176.531341 240.355604 
L 174.087705 240.336163 
L 171.644068 240.405215 
L 169.200432 240.822809 
L 166.756795 241.182465 
L 164.313159 241.991252 
L 161.869523 242.523007 
L 159.425886 242.825798 
L 156.98225 243.053642 
L 154.538614 243.293675 
L 152.094977 243.451605 
L 149.651341 243.183466 
L 147.207705 243.07285 
L 144.764068 243.087657 
L 142.320432 243.130505 
L 139.876795 243.326423 
L 137.433159 243.685104 
L 134.989523 243.859658 
L 132.545886 243.995538 
L 130.10225 244.102845 
L 127.658614 244.188599 
L 125.214977 244.256698 
L 122.771341 244.401915 
L 120.327705 244.622081 
L 117.884068 244.813202 
L 115.440432 244.976911 
L 112.996795 245.102454 
L 110.553159 245.231442 
L 108.109523 245.428585 
L 105.665886 245.596778 
L 103.22225 245.732921 
L 100.778614 245.911931 
L 98.334977 246.115558 
L 95.891341 246.290292 
L 93.447705 246.453641 
L 91.004068 246.578218 
L 88.560432 246.649096 
L 86.116795 246.655838 
L 83.673159 246.524171 
L 81.229523 246.375082 
L 78.785886 246.19461 
L 76.34225 246.035699 
" clip-path="url(#p6b5ed57344)" style="fill: none; stroke-dasharray: 2,3.3; stroke-dashoffset: 0; stroke: #bcbd22; stroke-width: 2"/>
   </g>
   <g id="line2d_46">
    <path d="M 318.26225 164.902301 
L 315.818614 169.908233 
L 313.374977 174.417878 
L 310.931341 178.484386 
L 308.487705 184.011035 
L 306.044068 189.051032 
L 303.600432 193.640286 
L 301.156795 198.044692 
L 298.713159 202.295513 
L 296.269523 206.043181 
L 293.825886 209.431846 
L 291.38225 213.067526 
L 288.938614 216.36161 
L 286.494977 219.296952 
L 284.051341 221.904405 
L 281.607705 223.979101 
L 279.164068 225.564715 
L 276.720432 227.295141 
L 274.276795 228.7073 
L 271.833159 229.511816 
L 269.389523 229.64005 
L 266.945886 229.531424 
L 264.50225 229.231357 
L 262.058614 228.780508 
L 259.614977 228.213965 
L 257.171341 227.876268 
L 254.727705 227.483849 
L 252.284068 226.776266 
L 249.840432 226.025112 
L 247.396795 225.239961 
L 244.953159 224.43622 
L 242.509523 223.627637 
L 240.065886 222.939878 
L 237.62225 222.419819 
L 235.178614 221.91026 
L 232.734977 221.434743 
L 230.291341 221.866309 
L 227.847705 223.20443 
L 225.404068 224.437287 
L 222.960432 226.447788 
L 220.516795 227.054502 
L 218.073159 227.064416 
L 215.629523 226.996009 
L 213.185886 227.158776 
L 210.74225 227.639202 
L 208.298614 228.145272 
L 205.854977 229.181295 
L 203.411341 230.035234 
L 200.967705 230.645685 
L 198.524068 231.202575 
L 196.080432 231.71033 
L 193.636795 232.259891 
L 191.193159 232.789652 
L 188.749523 232.830482 
L 186.305886 232.873032 
L 183.86225 232.757039 
L 181.418614 231.766719 
L 178.974977 230.037868 
L 176.531341 228.38409 
L 174.087705 226.841589 
L 171.644068 225.540335 
L 169.200432 224.329071 
L 166.756795 223.180423 
L 164.313159 222.258599 
L 161.869523 221.409176 
L 159.425886 220.393079 
L 156.98225 219.840884 
L 154.538614 220.002407 
L 152.094977 220.231321 
L 149.651341 220.278131 
L 147.207705 220.308757 
L 144.764068 220.32142 
L 142.320432 220.320253 
L 139.876795 220.307392 
L 137.433159 220.285372 
L 134.989523 220.086283 
L 132.545886 219.935587 
L 130.10225 219.783265 
L 127.658614 219.631949 
L 125.214977 219.508803 
L 122.771341 219.794267 
L 120.327705 220.249079 
L 117.884068 220.277925 
L 115.440432 220.288697 
L 112.996795 220.319306 
L 110.553159 220.387156 
L 108.109523 220.592438 
L 105.665886 220.750695 
L 103.22225 220.984197 
L 100.778614 221.341899 
L 98.334977 221.456687 
L 95.891341 221.491678 
L 93.447705 221.779785 
L 91.004068 222.085778 
L 88.560432 222.36035 
L 86.116795 222.550808 
L 83.673159 222.655411 
L 81.229523 222.611162 
L 78.785886 222.588626 
L 76.34225 222.558341 
" clip-path="url(#p6b5ed57344)" style="fill: none; stroke-dasharray: 2,3.3; stroke-dashoffset: 0; stroke: #17becf; stroke-width: 2"/>
   </g>
   <g id="line2d_47">
    <path d="M 318.26225 134.449803 
L 315.818614 137.765312 
L 313.374977 141.138323 
L 310.931341 144.54813 
L 308.487705 148.272746 
L 306.044068 152.157719 
L 303.600432 156.248173 
L 301.156795 160.081683 
L 298.713159 163.580993 
L 296.269523 166.638667 
L 293.825886 169.440797 
L 291.38225 172.473962 
L 288.938614 175.693877 
L 286.494977 178.967926 
L 284.051341 182.077048 
L 281.607705 184.986293 
L 279.164068 187.524368 
L 276.720432 189.902985 
L 274.276795 192.263908 
L 271.833159 194.557351 
L 269.389523 197.022269 
L 266.945886 199.214591 
L 264.50225 201.178627 
L 262.058614 203.103036 
L 259.614977 204.813557 
L 257.171341 206.429009 
L 254.727705 207.918521 
L 252.284068 209.266722 
L 249.840432 210.595076 
L 247.396795 211.64878 
L 244.953159 212.427181 
L 242.509523 213.063916 
L 240.065886 213.664252 
L 237.62225 214.367442 
L 235.178614 215.32816 
L 232.734977 216.122832 
L 230.291341 217.03968 
L 227.847705 218.151536 
L 225.404068 219.132482 
L 222.960432 219.871498 
L 220.516795 220.721539 
L 218.073159 221.428402 
L 215.629523 221.834115 
L 213.185886 222.27929 
L 210.74225 222.844733 
L 208.298614 223.323815 
L 205.854977 223.989033 
L 203.411341 223.317427 
L 200.967705 223.652136 
L 198.524068 224.273205 
L 196.080432 224.965764 
L 193.636795 225.607228 
L 191.193159 226.339293 
L 188.749523 226.888149 
L 186.305886 227.388645 
L 183.86225 227.922484 
L 181.418614 228.310025 
L 178.974977 228.631832 
L 176.531341 228.759442 
L 174.087705 228.589711 
L 171.644068 228.328949 
L 169.200432 228.129338 
L 166.756795 228.528595 
L 164.313159 230.091846 
L 161.869523 230.522131 
L 159.425886 231.342101 
L 156.98225 232.668824 
L 154.538614 233.183285 
L 152.094977 233.586056 
L 149.651341 233.705958 
L 147.207705 233.688117 
L 144.764068 233.625247 
L 142.320432 233.553926 
L 139.876795 233.58521 
L 137.433159 233.616611 
L 134.989523 233.526431 
L 132.545886 233.353963 
L 130.10225 233.30765 
L 127.658614 233.332574 
L 125.214977 233.469973 
L 122.771341 233.486752 
L 120.327705 233.400326 
L 117.884068 233.179529 
L 115.440432 232.40601 
L 112.996795 230.771656 
L 110.553159 228.476886 
L 108.109523 226.133605 
L 105.665886 224.023447 
L 103.22225 221.70165 
L 100.778614 219.974284 
L 98.334977 218.494581 
L 95.891341 217.303775 
L 93.447705 215.919338 
L 91.004068 214.238901 
L 88.560432 212.70471 
L 86.116795 211.283973 
L 83.673159 210.000022 
L 81.229523 208.400832 
L 78.785886 206.581708 
L 76.34225 208.731584 
" clip-path="url(#p6b5ed57344)" style="fill: none; stroke: #000000; stroke-width: 2.5; stroke-linecap: square"/>
   </g>
   <g id="line2d_48">
    <path d="M 149.651341 273.312 
L 149.651341 7.2 
" clip-path="url(#p6b5ed57344)" style="fill: none; stroke-dasharray: 9.25,4; stroke-dashoffset: 0; stroke: #000000; stroke-width: 2.5"/>
   </g>
   <g id="patch_3">
    <path d="M 64.24625 273.312 
L 64.24625 7.2 
" style="fill: none; stroke: #000000; stroke-width: 0.8; stroke-linejoin: miter; stroke-linecap: square"/>
   </g>
   <g id="patch_4">
    <path d="M 330.35825 273.312 
L 330.35825 7.2 
" style="fill: none; stroke: #000000; stroke-width: 0.8; stroke-linejoin: miter; stroke-linecap: square"/>
   </g>
   <g id="patch_5">
    <path d="M 64.24625 273.312 
L 330.35825 273.312 
" style="fill: none; stroke: #000000; stroke-width: 0.8; stroke-linejoin: miter; stroke-linecap: square"/>
   </g>
   <g id="patch_6">
    <path d="M 64.24625 7.2 
L 330.35825 7.2 
" style="fill: none; stroke: #000000; stroke-width: 0.8; stroke-linejoin: miter; stroke-linecap: square"/>
   </g>
  </g>
 </g>
 <defs>
  <clipPath id="p6b5ed57344">
   <rect x="64.24625" y="7.2" width="266.112" height="266.112"/>
  </clipPath>
 </defs>
</svg>
