<?xml version="1.0" encoding="utf-8" standalone="no"?>
<!DOCTYPE svg PUBLIC "-//W3C//DTD SVG 1.1//EN"
  "http://www.w3.org/Graphics/SVG/1.1/DTD/svg11.dtd">
<svg xmlns:xlink="http://www.w3.org/1999/xlink" width="332.645645pt" height="326.35325pt" viewBox="0 0 332.645645 326.35325" xmlns="http://www.w3.org/2000/svg" version="1.1">
 <metadata>
  <rdf:RDF xmlns:dc="http://purl.org/dc/elements/1.1/" xmlns:cc="http://creativecommons.org/ns#" xmlns:rdf="http://www.w3.org/1999/02/22-rdf-syntax-ns#">
   <cc:Work>
    <dc:type rdf:resource="http://purl.org/dc/dcmitype/StillImage"/>
    <dc:date>2026-04-28T14:41:44.678448</dc:date>
    <dc:format>image/svg+xml</dc:format>
    <dc:creator>
     <cc:Agent>
      <dc:title>Matplotlib v3.10.9, https://matplotlib.org/</dc:title>
     </cc:Agent>
    </dc:creator>
   </cc:Work>
  </rdf:RDF>
 </metadata>
 <defs>
  <style type="text/css">*{stroke-linejoin: round; stroke-linecap: butt}</style>
 </defs>
 <g id="figure_1">
  <g id="patch_1">
   <path d="M 0 326.35325 
L 332.645645 326.35325 
L 332.645645 0 
L 0 0 
z
" style="fill: #ffffff"/>
  </g>
  <g id="axes_1">
   <g id="patch_2">
    <path d="M 58.525625 273.312 
L 324.637625 273.312 
L 324.637625 7.2 
L 58.525625 7.2 
z
" style="fill: #ffffff"/>
   </g>
   <g id="PathCollection_1">
    <defs>
     <path id="C0_0_cb2f5ab7d9" d="M 0 3.162278 
C 0.838646 3.162278 1.643056 2.82908 2.236068 2.236068 
C 2.82908 1.643056 3.162278 0.838646 3.162278 -0 
C 3.162278 -0.838646 2.82908 -1.643056 2.236068 -2.236068 
C 1.643056 -2.82908 0.838646 -3.162278 0 -3.162278 
C -0.838646 -3.162278 -1.643056 -2.82908 -2.236068 -2.236068 
C -2.82908 -1.643056 -3.162278 -0.838646 -3.162278 0 
C -3.162278 0.838646 -2.82908 1.643056 -2.236068 2.236068 
C -1.643056 2.82908 -0.838646 3.162278 0 3.162278 
z
"/>
    </defs>
    <g clip-path="url(#p5d22ae5eb2)">
     <use xlink:href="#C0_0_cb2f5ab7d9" x="167.897732" y="182.704331" style="fill: none; stroke: #0000ff"/>
    </g>
    <g clip-path="url(#p5d22ae5eb2)">
     <use xlink:href="#C0_0_cb2f5ab7d9" x="155.093474" y="138.109814" style="fill: none; stroke: #0000ff"/>
    </g>
    <g clip-path="url(#p5d22ae5eb2)">
     <use xlink:href="#C0_0_cb2f5ab7d9" x="117.400984" y="192.533389" style="fill: none; stroke: #0000ff"/>
    </g>
    <g clip-path="url(#p5d22ae5eb2)">
     <use xlink:href="#C0_0_cb2f5ab7d9" x="74.823064" y="237.168967" style="fill: none; stroke: #0000ff"/>
    </g>
    <g clip-path="url(#p5d22ae5eb2)">
     <use xlink:href="#C0_0_cb2f5ab7d9" x="223.045014" y="111.590103" style="fill: none; stroke: #0000ff"/>
    </g>
    <g clip-path="url(#p5d22ae5eb2)">
     <use xlink:href="#C0_0_cb2f5ab7d9" x="172.80625" y="171.232321" style="fill: none; stroke: #0000ff"/>
    </g>
    <g clip-path="url(#p5d22ae5eb2)">
     <use xlink:href="#C0_0_cb2f5ab7d9" x="97.002332" y="223.978969" style="fill: none; stroke: #0000ff"/>
    </g>
    <g clip-path="url(#p5d22ae5eb2)">
     <use xlink:href="#C0_0_cb2f5ab7d9" x="247.828918" y="130.475554" style="fill: none; stroke: #0000ff"/>
    </g>
    <g clip-path="url(#p5d22ae5eb2)">
     <use xlink:href="#C0_0_cb2f5ab7d9" x="135.353421" y="204.19771" style="fill: none; stroke: #0000ff"/>
    </g>
    <g clip-path="url(#p5d22ae5eb2)">
     <use xlink:href="#C0_0_cb2f5ab7d9" x="68.859857" y="271.303652" style="fill: none; stroke: #0000ff"/>
    </g>
    <g clip-path="url(#p5d22ae5eb2)">
     <use xlink:href="#C0_0_cb2f5ab7d9" x="183.552042" y="175.955539" style="fill: none; stroke: #0000ff"/>
    </g>
    <g clip-path="url(#p5d22ae5eb2)">
     <use xlink:href="#C0_0_cb2f5ab7d9" x="86.668099" y="246.929076" style="fill: none; stroke: #0000ff"/>
    </g>
    <g clip-path="url(#p5d22ae5eb2)">
     <use xlink:href="#C0_0_cb2f5ab7d9" x="243.86684" y="55.866156" style="fill: none; stroke: #0000ff"/>
    </g>
    <g clip-path="url(#p5d22ae5eb2)">
     <use xlink:href="#C0_0_cb2f5ab7d9" x="249.082962" y="120.050607" style="fill: none; stroke: #0000ff"/>
    </g>
    <g clip-path="url(#p5d22ae5eb2)">
     <use xlink:href="#C0_0_cb2f5ab7d9" x="165.635039" y="177.961961" style="fill: none; stroke: #0000ff"/>
    </g>
    <g clip-path="url(#p5d22ae5eb2)">
     <use xlink:href="#C0_0_cb2f5ab7d9" x="250.126265" y="50.547421" style="fill: none; stroke: #0000ff"/>
    </g>
    <g clip-path="url(#p5d22ae5eb2)">
     <use xlink:href="#C0_0_cb2f5ab7d9" x="250.126265" y="114.193488" style="fill: none; stroke: #0000ff"/>
    </g>
    <g clip-path="url(#p5d22ae5eb2)">
     <use xlink:href="#C0_0_cb2f5ab7d9" x="191.69873" y="173.126828" style="fill: none; stroke: #0000ff"/>
    </g>
    <g clip-path="url(#p5d22ae5eb2)">
     <use xlink:href="#C0_0_cb2f5ab7d9" x="186.018494" y="161.448655" style="fill: none; stroke: #0000ff"/>
    </g>
    <g clip-path="url(#p5d22ae5eb2)">
     <use xlink:href="#C0_0_cb2f5ab7d9" x="125.319812" y="209.125443" style="fill: none; stroke: #0000ff"/>
    </g>
    <g clip-path="url(#p5d22ae5eb2)">
     <use xlink:href="#C0_0_cb2f5ab7d9" x="72.961071" y="269.619345" style="fill: none; stroke: #0000ff"/>
    </g>
    <g clip-path="url(#p5d22ae5eb2)">
     <use xlink:href="#C0_0_cb2f5ab7d9" x="212.725266" y="134.615879" style="fill: none; stroke: #0000ff"/>
    </g>
    <g clip-path="url(#p5d22ae5eb2)">
     <use xlink:href="#C0_0_cb2f5ab7d9" x="139.138323" y="186.915263" style="fill: none; stroke: #0000ff"/>
    </g>
    <g clip-path="url(#p5d22ae5eb2)">
     <use xlink:href="#C0_0_cb2f5ab7d9" x="78.23919" y="257.520906" style="fill: none; stroke: #0000ff"/>
    </g>
    <g clip-path="url(#p5d22ae5eb2)">
     <use xlink:href="#C0_0_cb2f5ab7d9" x="210.994765" y="168.246115" style="fill: none; stroke: #0000ff"/>
    </g>
    <g clip-path="url(#p5d22ae5eb2)">
     <use xlink:href="#C0_0_cb2f5ab7d9" x="176.64607" y="102.048642" style="fill: none; stroke: #0000ff"/>
    </g>
    <g clip-path="url(#p5d22ae5eb2)">
     <use xlink:href="#C0_0_cb2f5ab7d9" x="164.094228" y="125.045609" style="fill: none; stroke: #0000ff"/>
    </g>
    <g clip-path="url(#p5d22ae5eb2)">
     <use xlink:href="#C0_0_cb2f5ab7d9" x="221.147688" y="153.269894" style="fill: none; stroke: #0000ff"/>
    </g>
    <g clip-path="url(#p5d22ae5eb2)">
     <use xlink:href="#C0_0_cb2f5ab7d9" x="170.888431" y="169.511959" style="fill: none; stroke: #0000ff"/>
    </g>
    <g clip-path="url(#p5d22ae5eb2)">
     <use xlink:href="#C0_0_cb2f5ab7d9" x="178.983063" y="165.984232" style="fill: none; stroke: #0000ff"/>
    </g>
    <g clip-path="url(#p5d22ae5eb2)">
     <use xlink:href="#C0_0_cb2f5ab7d9" x="121.614907" y="204.318765" style="fill: none; stroke: #0000ff"/>
    </g>
    <g clip-path="url(#p5d22ae5eb2)">
     <use xlink:href="#C0_0_cb2f5ab7d9" x="135.604144" y="207.789004" style="fill: none; stroke: #0000ff"/>
    </g>
    <g clip-path="url(#p5d22ae5eb2)">
     <use xlink:href="#C0_0_cb2f5ab7d9" x="161.627608" y="195.930397" style="fill: none; stroke: #0000ff"/>
    </g>
    <g clip-path="url(#p5d22ae5eb2)">
     <use xlink:href="#C0_0_cb2f5ab7d9" x="159.865778" y="160.246802" style="fill: none; stroke: #0000ff"/>
    </g>
    <g clip-path="url(#p5d22ae5eb2)">
     <use xlink:href="#C0_0_cb2f5ab7d9" x="184.633432" y="129.100405" style="fill: none; stroke: #0000ff"/>
    </g>
    <g clip-path="url(#p5d22ae5eb2)">
     <use xlink:href="#C0_0_cb2f5ab7d9" x="87.872704" y="246.853224" style="fill: none; stroke: #0000ff"/>
    </g>
    <g clip-path="url(#p5d22ae5eb2)">
     <use xlink:href="#C0_0_cb2f5ab7d9" x="100.325947" y="252.643863" style="fill: none; stroke: #0000ff"/>
    </g>
    <g clip-path="url(#p5d22ae5eb2)">
     <use xlink:href="#C0_0_cb2f5ab7d9" x="159.178134" y="173.14777" style="fill: none; stroke: #0000ff"/>
    </g>
    <g clip-path="url(#p5d22ae5eb2)">
     <use xlink:href="#C0_0_cb2f5ab7d9" x="137.539492" y="175.722014" style="fill: none; stroke: #0000ff"/>
    </g>
    <g clip-path="url(#p5d22ae5eb2)">
     <use xlink:href="#C0_0_cb2f5ab7d9" x="145.723596" y="199.156452" style="fill: none; stroke: #0000ff"/>
    </g>
    <g clip-path="url(#p5d22ae5eb2)">
     <use xlink:href="#C0_0_cb2f5ab7d9" x="205.179804" y="140.683925" style="fill: none; stroke: #0000ff"/>
    </g>
    <g clip-path="url(#p5d22ae5eb2)">
     <use xlink:href="#C0_0_cb2f5ab7d9" x="195.083102" y="146.729234" style="fill: none; stroke: #0000ff"/>
    </g>
    <g clip-path="url(#p5d22ae5eb2)">
     <use xlink:href="#C0_0_cb2f5ab7d9" x="186.923999" y="127.078129" style="fill: none; stroke: #0000ff"/>
    </g>
    <g clip-path="url(#p5d22ae5eb2)">
     <use xlink:href="#C0_0_cb2f5ab7d9" x="174.470756" y="152.704778" style="fill: none; stroke: #0000ff"/>
    </g>
    <g clip-path="url(#p5d22ae5eb2)">
     <use xlink:href="#C0_0_cb2f5ab7d9" x="169.512367" y="162.196223" style="fill: none; stroke: #0000ff"/>
    </g>
    <g clip-path="url(#p5d22ae5eb2)">
     <use xlink:href="#C0_0_cb2f5ab7d9" x="151.591567" y="175.559992" style="fill: none; stroke: #0000ff"/>
    </g>
    <g clip-path="url(#p5d22ae5eb2)">
     <use xlink:href="#C0_0_cb2f5ab7d9" x="216.281914" y="124.889589" style="fill: none; stroke: #0000ff"/>
    </g>
    <g clip-path="url(#p5d22ae5eb2)">
     <use xlink:href="#C0_0_cb2f5ab7d9" x="211.314811" y="100.105518" style="fill: none; stroke: #0000ff"/>
    </g>
    <g clip-path="url(#p5d22ae5eb2)">
     <use xlink:href="#C0_0_cb2f5ab7d9" x="178.119575" y="144.78385" style="fill: none; stroke: #0000ff"/>
    </g>
    <g clip-path="url(#p5d22ae5eb2)">
     <use xlink:href="#C0_0_cb2f5ab7d9" x="147.806664" y="166.723564" style="fill: none; stroke: #0000ff"/>
    </g>
    <g clip-path="url(#p5d22ae5eb2)">
     <use xlink:href="#C0_0_cb2f5ab7d9" x="253.519019" y="98.360737" style="fill: none; stroke: #0000ff"/>
    </g>
    <g clip-path="url(#p5d22ae5eb2)">
     <use xlink:href="#C0_0_cb2f5ab7d9" x="284.018071" y="78.981784" style="fill: none; stroke: #0000ff"/>
    </g>
    <g clip-path="url(#p5d22ae5eb2)">
     <use xlink:href="#C0_0_cb2f5ab7d9" x="261.558952" y="41.051763" style="fill: none; stroke: #0000ff"/>
    </g>
    <g clip-path="url(#p5d22ae5eb2)">
     <use xlink:href="#C0_0_cb2f5ab7d9" x="167.458333" y="153.714301" style="fill: none; stroke: #0000ff"/>
    </g>
    <g clip-path="url(#p5d22ae5eb2)">
     <use xlink:href="#C0_0_cb2f5ab7d9" x="134.58873" y="179.957854" style="fill: none; stroke: #0000ff"/>
    </g>
    <g clip-path="url(#p5d22ae5eb2)">
     <use xlink:href="#C0_0_cb2f5ab7d9" x="151.143187" y="156.285633" style="fill: none; stroke: #0000ff"/>
    </g>
    <g clip-path="url(#p5d22ae5eb2)">
     <use xlink:href="#C0_0_cb2f5ab7d9" x="143.10012" y="170.751443" style="fill: none; stroke: #0000ff"/>
    </g>
    <g clip-path="url(#p5d22ae5eb2)">
     <use xlink:href="#C0_0_cb2f5ab7d9" x="131.324052" y="191.612451" style="fill: none; stroke: #0000ff"/>
    </g>
    <g clip-path="url(#p5d22ae5eb2)">
     <use xlink:href="#C0_0_cb2f5ab7d9" x="178.922184" y="116.0712" style="fill: none; stroke: #0000ff"/>
    </g>
    <g clip-path="url(#p5d22ae5eb2)">
     <use xlink:href="#C0_0_cb2f5ab7d9" x="113.556788" y="209.549019" style="fill: none; stroke: #0000ff"/>
    </g>
    <g clip-path="url(#p5d22ae5eb2)">
     <use xlink:href="#C0_0_cb2f5ab7d9" x="126.68508" y="215.004065" style="fill: none; stroke: #0000ff"/>
    </g>
    <g clip-path="url(#p5d22ae5eb2)">
     <use xlink:href="#C0_0_cb2f5ab7d9" x="188.346386" y="138.808094" style="fill: none; stroke: #0000ff"/>
    </g>
    <g clip-path="url(#p5d22ae5eb2)">
     <use xlink:href="#C0_0_cb2f5ab7d9" x="203.005203" y="139.663603" style="fill: none; stroke: #0000ff"/>
    </g>
    <g clip-path="url(#p5d22ae5eb2)">
     <use xlink:href="#C0_0_cb2f5ab7d9" x="201.377051" y="129.231621" style="fill: none; stroke: #0000ff"/>
    </g>
    <g clip-path="url(#p5d22ae5eb2)">
     <use xlink:href="#C0_0_cb2f5ab7d9" x="197.438841" y="138.430109" style="fill: none; stroke: #0000ff"/>
    </g>
    <g clip-path="url(#p5d22ae5eb2)">
     <use xlink:href="#C0_0_cb2f5ab7d9" x="172.582335" y="133.151563" style="fill: none; stroke: #0000ff"/>
    </g>
    <g clip-path="url(#p5d22ae5eb2)">
     <use xlink:href="#C0_0_cb2f5ab7d9" x="145.179981" y="175.163658" style="fill: none; stroke: #0000ff"/>
    </g>
    <g clip-path="url(#p5d22ae5eb2)">
     <use xlink:href="#C0_0_cb2f5ab7d9" x="126.68508" y="186.198734" style="fill: none; stroke: #0000ff"/>
    </g>
    <g clip-path="url(#p5d22ae5eb2)">
     <use xlink:href="#C0_0_cb2f5ab7d9" x="159.178134" y="174.520059" style="fill: none; stroke: #0000ff"/>
    </g>
    <g clip-path="url(#p5d22ae5eb2)">
     <use xlink:href="#C0_0_cb2f5ab7d9" x="224.69493" y="115.954818" style="fill: none; stroke: #0000ff"/>
    </g>
    <g clip-path="url(#p5d22ae5eb2)">
     <use xlink:href="#C0_0_cb2f5ab7d9" x="129.854227" y="215.148671" style="fill: none; stroke: #0000ff"/>
    </g>
    <g clip-path="url(#p5d22ae5eb2)">
     <use xlink:href="#C0_0_cb2f5ab7d9" x="72.961071" y="279.680348" style="fill: none; stroke: #0000ff"/>
    </g>
    <g clip-path="url(#p5d22ae5eb2)">
     <use xlink:href="#C0_0_cb2f5ab7d9" x="133.538595" y="164.946525" style="fill: none; stroke: #0000ff"/>
    </g>
    <g clip-path="url(#p5d22ae5eb2)">
     <use xlink:href="#C0_0_cb2f5ab7d9" x="217.416297" y="122.926306" style="fill: none; stroke: #0000ff"/>
    </g>
    <g clip-path="url(#p5d22ae5eb2)">
     <use xlink:href="#C0_0_cb2f5ab7d9" x="197.571944" y="127.531487" style="fill: none; stroke: #0000ff"/>
    </g>
    <g clip-path="url(#p5d22ae5eb2)">
     <use xlink:href="#C0_0_cb2f5ab7d9" x="119.580158" y="195.790732" style="fill: none; stroke: #0000ff"/>
    </g>
    <g clip-path="url(#p5d22ae5eb2)">
     <use xlink:href="#C0_0_cb2f5ab7d9" x="104.721072" y="201.046425" style="fill: none; stroke: #0000ff"/>
    </g>
    <g clip-path="url(#p5d22ae5eb2)">
     <use xlink:href="#C0_0_cb2f5ab7d9" x="113.556788" y="177.81399" style="fill: none; stroke: #0000ff"/>
    </g>
    <g clip-path="url(#p5d22ae5eb2)">
     <use xlink:href="#C0_0_cb2f5ab7d9" x="68.859857" y="247.943377" style="fill: none; stroke: #0000ff"/>
    </g>
    <g clip-path="url(#p5d22ae5eb2)">
     <use xlink:href="#C0_0_cb2f5ab7d9" x="150.840589" y="203.121285" style="fill: none; stroke: #0000ff"/>
    </g>
    <g clip-path="url(#p5d22ae5eb2)">
     <use xlink:href="#C0_0_cb2f5ab7d9" x="76.578597" y="261.042975" style="fill: none; stroke: #0000ff"/>
    </g>
    <g clip-path="url(#p5d22ae5eb2)">
     <use xlink:href="#C0_0_cb2f5ab7d9" x="142.507559" y="188.476015" style="fill: none; stroke: #0000ff"/>
    </g>
    <g clip-path="url(#p5d22ae5eb2)">
     <use xlink:href="#C0_0_cb2f5ab7d9" x="141.078767" y="198.165912" style="fill: none; stroke: #0000ff"/>
    </g>
    <g clip-path="url(#p5d22ae5eb2)">
     <use xlink:href="#C0_0_cb2f5ab7d9" x="109.7467" y="227.163521" style="fill: none; stroke: #0000ff"/>
    </g>
    <g clip-path="url(#p5d22ae5eb2)">
     <use xlink:href="#C0_0_cb2f5ab7d9" x="189.791478" y="127.742076" style="fill: none; stroke: #0000ff"/>
    </g>
    <g clip-path="url(#p5d22ae5eb2)">
     <use xlink:href="#C0_0_cb2f5ab7d9" x="180.117412" y="148.415667" style="fill: none; stroke: #0000ff"/>
    </g>
    <g clip-path="url(#p5d22ae5eb2)">
     <use xlink:href="#C0_0_cb2f5ab7d9" x="90.148817" y="242.204097" style="fill: none; stroke: #0000ff"/>
    </g>
    <g clip-path="url(#p5d22ae5eb2)">
     <use xlink:href="#C0_0_cb2f5ab7d9" x="90.148817" y="232.866797" style="fill: none; stroke: #0000ff"/>
    </g>
    <g clip-path="url(#p5d22ae5eb2)">
     <use xlink:href="#C0_0_cb2f5ab7d9" x="87.872704" y="239.43267" style="fill: none; stroke: #0000ff"/>
    </g>
    <g clip-path="url(#p5d22ae5eb2)">
     <use xlink:href="#C0_0_cb2f5ab7d9" x="163.896076" y="179.0542" style="fill: none; stroke: #0000ff"/>
    </g>
    <g clip-path="url(#p5d22ae5eb2)">
     <use xlink:href="#C0_0_cb2f5ab7d9" x="141.493821" y="190.460626" style="fill: none; stroke: #0000ff"/>
    </g>
    <g clip-path="url(#p5d22ae5eb2)">
     <use xlink:href="#C0_0_cb2f5ab7d9" x="125.666861" y="205.744852" style="fill: none; stroke: #0000ff"/>
    </g>
    <g clip-path="url(#p5d22ae5eb2)">
     <use xlink:href="#C0_0_cb2f5ab7d9" x="143.872827" y="188.231888" style="fill: none; stroke: #0000ff"/>
    </g>
    <g clip-path="url(#p5d22ae5eb2)">
     <use xlink:href="#C0_0_cb2f5ab7d9" x="124.968797" y="200.083272" style="fill: none; stroke: #0000ff"/>
    </g>
    <g clip-path="url(#p5d22ae5eb2)">
     <use xlink:href="#C0_0_cb2f5ab7d9" x="101.103545" y="210.399763" style="fill: none; stroke: #0000ff"/>
    </g>
    <g clip-path="url(#p5d22ae5eb2)">
     <use xlink:href="#C0_0_cb2f5ab7d9" x="170.650033" y="172.227207" style="fill: none; stroke: #0000ff"/>
    </g>
    <g clip-path="url(#p5d22ae5eb2)">
     <use xlink:href="#C0_0_cb2f5ab7d9" x="148.470765" y="183.377112" style="fill: none; stroke: #0000ff"/>
    </g>
    <g clip-path="url(#p5d22ae5eb2)">
     <use xlink:href="#C0_0_cb2f5ab7d9" x="115.538991" y="214.879644" style="fill: none; stroke: #0000ff"/>
    </g>
    <g clip-path="url(#p5d22ae5eb2)">
     <use xlink:href="#C0_0_cb2f5ab7d9" x="181.938002" y="154.763963" style="fill: none; stroke: #0000ff"/>
    </g>
    <g clip-path="url(#p5d22ae5eb2)">
     <use xlink:href="#C0_0_cb2f5ab7d9" x="193.074483" y="132.599021" style="fill: none; stroke: #0000ff"/>
    </g>
    <g clip-path="url(#p5d22ae5eb2)">
     <use xlink:href="#C0_0_cb2f5ab7d9" x="161.946988" y="175.618147" style="fill: none; stroke: #0000ff"/>
    </g>
    <g clip-path="url(#p5d22ae5eb2)">
     <use xlink:href="#C0_0_cb2f5ab7d9" x="146.080734" y="189.268053" style="fill: none; stroke: #0000ff"/>
    </g>
    <g clip-path="url(#p5d22ae5eb2)">
     <use xlink:href="#C0_0_cb2f5ab7d9" x="124.613724" y="201.689918" style="fill: none; stroke: #0000ff"/>
    </g>
    <g clip-path="url(#p5d22ae5eb2)">
     <use xlink:href="#C0_0_cb2f5ab7d9" x="96.112024" y="229.900869" style="fill: none; stroke: #0000ff"/>
    </g>
    <g clip-path="url(#p5d22ae5eb2)">
     <use xlink:href="#C0_0_cb2f5ab7d9" x="150.070787" y="166.36665" style="fill: none; stroke: #0000ff"/>
    </g>
    <g clip-path="url(#p5d22ae5eb2)">
     <use xlink:href="#C0_0_cb2f5ab7d9" x="142.10607" y="191.966892" style="fill: none; stroke: #0000ff"/>
    </g>
    <g clip-path="url(#p5d22ae5eb2)">
     <use xlink:href="#C0_0_cb2f5ab7d9" x="120.81711" y="201.367384" style="fill: none; stroke: #0000ff"/>
    </g>
    <g clip-path="url(#p5d22ae5eb2)">
     <use xlink:href="#C0_0_cb2f5ab7d9" x="116.015178" y="221.827096" style="fill: none; stroke: #0000ff"/>
    </g>
    <g clip-path="url(#p5d22ae5eb2)">
     <use xlink:href="#C0_0_cb2f5ab7d9" x="93.274918" y="230.724273" style="fill: none; stroke: #0000ff"/>
    </g>
    <g clip-path="url(#p5d22ae5eb2)">
     <use xlink:href="#C0_0_cb2f5ab7d9" x="124.254498" y="217.095988" style="fill: none; stroke: #0000ff"/>
    </g>
    <g clip-path="url(#p5d22ae5eb2)">
     <use xlink:href="#C0_0_cb2f5ab7d9" x="109.161664" y="224.731477" style="fill: none; stroke: #0000ff"/>
    </g>
    <g clip-path="url(#p5d22ae5eb2)">
     <use xlink:href="#C0_0_cb2f5ab7d9" x="128.310511" y="205.11907" style="fill: none; stroke: #0000ff"/>
    </g>
    <g clip-path="url(#p5d22ae5eb2)">
     <use xlink:href="#C0_0_cb2f5ab7d9" x="110.884366" y="222.90377" style="fill: none; stroke: #0000ff"/>
    </g>
    <g clip-path="url(#p5d22ae5eb2)">
     <use xlink:href="#C0_0_cb2f5ab7d9" x="127.992234" y="207.622049" style="fill: none; stroke: #0000ff"/>
    </g>
    <g clip-path="url(#p5d22ae5eb2)">
     <use xlink:href="#C0_0_cb2f5ab7d9" x="172.205478" y="176.826629" style="fill: none; stroke: #0000ff"/>
    </g>
    <g clip-path="url(#p5d22ae5eb2)">
     <use xlink:href="#C0_0_cb2f5ab7d9" x="194.317504" y="154.022108" style="fill: none; stroke: #0000ff"/>
    </g>
    <g clip-path="url(#p5d22ae5eb2)">
     <use xlink:href="#C0_0_cb2f5ab7d9" x="204.339007" y="133.462354" style="fill: none; stroke: #0000ff"/>
    </g>
    <g clip-path="url(#p5d22ae5eb2)">
     <use xlink:href="#C0_0_cb2f5ab7d9" x="197.505464" y="152.085731" style="fill: none; stroke: #0000ff"/>
    </g>
    <g clip-path="url(#p5d22ae5eb2)">
     <use xlink:href="#C0_0_cb2f5ab7d9" x="194.354397" y="138.748286" style="fill: none; stroke: #0000ff"/>
    </g>
    <g clip-path="url(#p5d22ae5eb2)">
     <use xlink:href="#C0_0_cb2f5ab7d9" x="203.801574" y="108.060995" style="fill: none; stroke: #0000ff"/>
    </g>
    <g clip-path="url(#p5d22ae5eb2)">
     <use xlink:href="#C0_0_cb2f5ab7d9" x="173.901972" y="187.506855" style="fill: none; stroke: #0000ff"/>
    </g>
    <g clip-path="url(#p5d22ae5eb2)">
     <use xlink:href="#C0_0_cb2f5ab7d9" x="191.212491" y="144.655402" style="fill: none; stroke: #0000ff"/>
    </g>
    <g clip-path="url(#p5d22ae5eb2)">
     <use xlink:href="#C0_0_cb2f5ab7d9" x="195.689191" y="136.787282" style="fill: none; stroke: #0000ff"/>
    </g>
    <g clip-path="url(#p5d22ae5eb2)">
     <use xlink:href="#C0_0_cb2f5ab7d9" x="174.890537" y="153.238504" style="fill: none; stroke: #0000ff"/>
    </g>
    <g clip-path="url(#p5d22ae5eb2)">
     <use xlink:href="#C0_0_cb2f5ab7d9" x="211.420757" y="99.949612" style="fill: none; stroke: #0000ff"/>
    </g>
    <g clip-path="url(#p5d22ae5eb2)">
     <use xlink:href="#C0_0_cb2f5ab7d9" x="216.318005" y="104.132919" style="fill: none; stroke: #0000ff"/>
    </g>
    <g clip-path="url(#p5d22ae5eb2)">
     <use xlink:href="#C0_0_cb2f5ab7d9" x="191.007597" y="134.676491" style="fill: none; stroke: #0000ff"/>
    </g>
    <g clip-path="url(#p5d22ae5eb2)">
     <use xlink:href="#C0_0_cb2f5ab7d9" x="192.687659" y="149.086912" style="fill: none; stroke: #0000ff"/>
    </g>
    <g clip-path="url(#p5d22ae5eb2)">
     <use xlink:href="#C0_0_cb2f5ab7d9" x="205.360701" y="103.999918" style="fill: none; stroke: #0000ff"/>
    </g>
    <g clip-path="url(#p5d22ae5eb2)">
     <use xlink:href="#C0_0_cb2f5ab7d9" x="184.020165" y="139.584602" style="fill: none; stroke: #0000ff"/>
    </g>
    <g clip-path="url(#p5d22ae5eb2)">
     <use xlink:href="#C0_0_cb2f5ab7d9" x="181.716243" y="140.038135" style="fill: none; stroke: #0000ff"/>
    </g>
    <g clip-path="url(#p5d22ae5eb2)">
     <use xlink:href="#C0_0_cb2f5ab7d9" x="161.520405" y="148.207649" style="fill: none; stroke: #0000ff"/>
    </g>
    <g clip-path="url(#p5d22ae5eb2)">
     <use xlink:href="#C0_0_cb2f5ab7d9" x="214.821293" y="114.323843" style="fill: none; stroke: #0000ff"/>
    </g>
    <g clip-path="url(#p5d22ae5eb2)">
     <use xlink:href="#C0_0_cb2f5ab7d9" x="184.835164" y="134.930204" style="fill: none; stroke: #0000ff"/>
    </g>
    <g clip-path="url(#p5d22ae5eb2)">
     <use xlink:href="#C0_0_cb2f5ab7d9" x="187.849174" y="131.630781" style="fill: none; stroke: #0000ff"/>
    </g>
    <g clip-path="url(#p5d22ae5eb2)">
     <use xlink:href="#C0_0_cb2f5ab7d9" x="150.226299" y="160.825661" style="fill: none; stroke: #0000ff"/>
    </g>
    <g clip-path="url(#p5d22ae5eb2)">
     <use xlink:href="#C0_0_cb2f5ab7d9" x="134.06815" y="167.084277" style="fill: none; stroke: #0000ff"/>
    </g>
    <g clip-path="url(#p5d22ae5eb2)">
     <use xlink:href="#C0_0_cb2f5ab7d9" x="85.414314" y="249.956989" style="fill: none; stroke: #0000ff"/>
    </g>
    <g clip-path="url(#p5d22ae5eb2)">
     <use xlink:href="#C0_0_cb2f5ab7d9" x="89.031841" y="265.675814" style="fill: none; stroke: #0000ff"/>
    </g>
    <g clip-path="url(#p5d22ae5eb2)">
     <use xlink:href="#C0_0_cb2f5ab7d9" x="157.141798" y="141.67434" style="fill: none; stroke: #0000ff"/>
    </g>
    <g clip-path="url(#p5d22ae5eb2)">
     <use xlink:href="#C0_0_cb2f5ab7d9" x="131.609761" y="176.882933" style="fill: none; stroke: #0000ff"/>
    </g>
    <g clip-path="url(#p5d22ae5eb2)">
     <use xlink:href="#C0_0_cb2f5ab7d9" x="141.286995" y="171.688037" style="fill: none; stroke: #0000ff"/>
    </g>
    <g clip-path="url(#p5d22ae5eb2)">
     <use xlink:href="#C0_0_cb2f5ab7d9" x="228.656814" y="122.33904" style="fill: none; stroke: #0000ff"/>
    </g>
    <g clip-path="url(#p5d22ae5eb2)">
     <use xlink:href="#C0_0_cb2f5ab7d9" x="163.896076" y="150.116014" style="fill: none; stroke: #0000ff"/>
    </g>
    <g clip-path="url(#p5d22ae5eb2)">
     <use xlink:href="#C0_0_cb2f5ab7d9" x="169.095624" y="166.62774" style="fill: none; stroke: #0000ff"/>
    </g>
    <g clip-path="url(#p5d22ae5eb2)">
     <use xlink:href="#C0_0_cb2f5ab7d9" x="98.709075" y="187.268501" style="fill: none; stroke: #0000ff"/>
    </g>
    <g clip-path="url(#p5d22ae5eb2)">
     <use xlink:href="#C0_0_cb2f5ab7d9" x="169.263" y="168.934491" style="fill: none; stroke: #0000ff"/>
    </g>
   </g>
   <g id="PathCollection_2">
    <defs>
     <path id="mb248065bd5" d="M 0 -3.535534 
L -3.535534 3.535534 
L 3.535534 3.535534 
z
" style="stroke: #ff0000"/>
    </defs>
    <g clip-path="url(#p5d22ae5eb2)">
     <use xlink:href="#mb248065bd5" x="274.098892" y="55.853453" style="fill: #ff0000; stroke: #ff0000"/>
     <use xlink:href="#mb248065bd5" x="310.224341" y="38.883825" style="fill: #ff0000; stroke: #ff0000"/>
     <use xlink:href="#mb248065bd5" x="308.783841" y="28.322397" style="fill: #ff0000; stroke: #ff0000"/>
     <use xlink:href="#mb248065bd5" x="195.512168" y="161.9228" style="fill: #ff0000; stroke: #ff0000"/>
     <use xlink:href="#mb248065bd5" x="282.752676" y="75.283799" style="fill: #ff0000; stroke: #ff0000"/>
     <use xlink:href="#mb248065bd5" x="275.595445" y="74.72921" style="fill: #ff0000; stroke: #ff0000"/>
     <use xlink:href="#mb248065bd5" x="313.993145" y="44.336346" style="fill: #ff0000; stroke: #ff0000"/>
     <use xlink:href="#mb248065bd5" x="175.373138" y="158.394135" style="fill: #ff0000; stroke: #ff0000"/>
     <use xlink:href="#mb248065bd5" x="138.463275" y="187.478213" style="fill: #ff0000; stroke: #ff0000"/>
     <use xlink:href="#mb248065bd5" x="251.778647" y="49.801402" style="fill: #ff0000; stroke: #ff0000"/>
     <use xlink:href="#mb248065bd5" x="233.348186" y="39.766607" style="fill: #ff0000; stroke: #ff0000"/>
     <use xlink:href="#mb248065bd5" x="309.309713" y="75.038631" style="fill: #ff0000; stroke: #ff0000"/>
     <use xlink:href="#mb248065bd5" x="313.993145" y="41.561204" style="fill: #ff0000; stroke: #ff0000"/>
     <use xlink:href="#mb248065bd5" x="306.754811" y="78.978706" style="fill: #ff0000; stroke: #ff0000"/>
     <use xlink:href="#mb248065bd5" x="313.45516" y="-1" style="fill: #ff0000; stroke: #ff0000"/>
     <use xlink:href="#mb248065bd5" x="308.49719" y="-1" style="fill: #ff0000; stroke: #ff0000"/>
     <use xlink:href="#mb248065bd5" x="238.626851" y="80.638907" style="fill: #ff0000; stroke: #ff0000"/>
     <use xlink:href="#mb248065bd5" x="312.502877" y="63.03412" style="fill: #ff0000; stroke: #ff0000"/>
     <use xlink:href="#mb248065bd5" x="313.993145" y="99.828534" style="fill: #ff0000; stroke: #ff0000"/>
     <use xlink:href="#mb248065bd5" x="294.596734" y="44.962981" style="fill: #ff0000; stroke: #ff0000"/>
    </g>
   </g>
   <g id="matplotlib.axis_1">
    <g id="xtick_1">
     <g id="line2d_1">
      <defs>
       <path id="md2930693bb" d="M 0 0 
L 0 3.5 
" style="stroke: #000000; stroke-width: 1.5"/>
      </defs>
      <g>
       <use xlink:href="#md2930693bb" x="58.525625" y="273.312" style="stroke: #000000; stroke-width: 1.5"/>
      </g>
     </g>
     <g id="text_1">
      <!-- 0 -->
      <g transform="translate(52.799375 293.989187) scale(0.18 -0.18)">
       <defs>
        <path id="DejaVuSans-30" d="M 2034 4250 
Q 1547 4250 1301 3770 
Q 1056 3291 1056 2328 
Q 1056 1369 1301 889 
Q 1547 409 2034 409 
Q 2525 409 2770 889 
Q 3016 1369 3016 2328 
Q 3016 3291 2770 3770 
Q 2525 4250 2034 4250 
z
M 2034 4750 
Q 2819 4750 3233 4129 
Q 3647 3509 3647 2328 
Q 3647 1150 3233 529 
Q 2819 -91 2034 -91 
Q 1250 -91 836 529 
Q 422 1150 422 2328 
Q 422 3509 836 4129 
Q 1250 4750 2034 4750 
z
" transform="scale(0.015625)"/>
       </defs>
       <use xlink:href="#DejaVuSans-30"/>
      </g>
     </g>
    </g>
    <g id="xtick_2">
     <g id="line2d_2">
      <g>
       <use xlink:href="#md2930693bb" x="101.103545" y="273.312" style="stroke: #000000; stroke-width: 1.5"/>
      </g>
     </g>
     <g id="text_2">
      <!-- 2 -->
      <g transform="translate(95.377295 293.989187) scale(0.18 -0.18)">
       <defs>
        <path id="DejaVuSans-32" d="M 1228 531 
L 3431 531 
L 3431 0 
L 469 0 
L 469 531 
Q 828 903 1448 1529 
Q 2069 2156 2228 2338 
Q 2531 2678 2651 2914 
Q 2772 3150 2772 3378 
Q 2772 3750 2511 3984 
Q 2250 4219 1831 4219 
Q 1534 4219 1204 4116 
Q 875 4013 500 3803 
L 500 4441 
Q 881 4594 1212 4672 
Q 1544 4750 1819 4750 
Q 2544 4750 2975 4387 
Q 3406 4025 3406 3419 
Q 3406 3131 3298 2873 
Q 3191 2616 2906 2266 
Q 2828 2175 2409 1742 
Q 1991 1309 1228 531 
z
" transform="scale(0.015625)"/>
       </defs>
       <use xlink:href="#DejaVuSans-32"/>
      </g>
     </g>
    </g>
    <g id="xtick_3">
     <g id="line2d_3">
      <g>
       <use xlink:href="#md2930693bb" x="143.681465" y="273.312" style="stroke: #000000; stroke-width: 1.5"/>
      </g>
     </g>
     <g id="text_3">
      <!-- 4 -->
      <g transform="translate(137.955215 293.989187) scale(0.18 -0.18)">
       <defs>
        <path id="DejaVuSans-34" d="M 2419 4116 
L 825 1625 
L 2419 1625 
L 2419 4116 
z
M 2253 4666 
L 3047 4666 
L 3047 1625 
L 3713 1625 
L 3713 1100 
L 3047 1100 
L 3047 0 
L 2419 0 
L 2419 1100 
L 313 1100 
L 313 1709 
L 2253 4666 
z
" transform="scale(0.015625)"/>
       </defs>
       <use xlink:href="#DejaVuSans-34"/>
      </g>
     </g>
    </g>
    <g id="xtick_4">
     <g id="line2d_4">
      <g>
       <use xlink:href="#md2930693bb" x="186.259385" y="273.312" style="stroke: #000000; stroke-width: 1.5"/>
      </g>
     </g>
     <g id="text_4">
      <!-- 6 -->
      <g transform="translate(180.533135 293.989187) scale(0.18 -0.18)">
       <defs>
        <path id="DejaVuSans-36" d="M 2113 2584 
Q 1688 2584 1439 2293 
Q 1191 2003 1191 1497 
Q 1191 994 1439 701 
Q 1688 409 2113 409 
Q 2538 409 2786 701 
Q 3034 994 3034 1497 
Q 3034 2003 2786 2293 
Q 2538 2584 2113 2584 
z
M 3366 4563 
L 3366 3988 
Q 3128 4100 2886 4159 
Q 2644 4219 2406 4219 
Q 1781 4219 1451 3797 
Q 1122 3375 1075 2522 
Q 1259 2794 1537 2939 
Q 1816 3084 2150 3084 
Q 2853 3084 3261 2657 
Q 3669 2231 3669 1497 
Q 3669 778 3244 343 
Q 2819 -91 2113 -91 
Q 1303 -91 875 529 
Q 447 1150 447 2328 
Q 447 3434 972 4092 
Q 1497 4750 2381 4750 
Q 2619 4750 2861 4703 
Q 3103 4656 3366 4563 
z
" transform="scale(0.015625)"/>
       </defs>
       <use xlink:href="#DejaVuSans-36"/>
      </g>
     </g>
    </g>
    <g id="xtick_5">
     <g id="line2d_5">
      <g>
       <use xlink:href="#md2930693bb" x="228.837305" y="273.312" style="stroke: #000000; stroke-width: 1.5"/>
      </g>
     </g>
     <g id="text_5">
      <!-- 8 -->
      <g transform="translate(223.111055 293.989187) scale(0.18 -0.18)">
       <defs>
        <path id="DejaVuSans-38" d="M 2034 2216 
Q 1584 2216 1326 1975 
Q 1069 1734 1069 1313 
Q 1069 891 1326 650 
Q 1584 409 2034 409 
Q 2484 409 2743 651 
Q 3003 894 3003 1313 
Q 3003 1734 2745 1975 
Q 2488 2216 2034 2216 
z
M 1403 2484 
Q 997 2584 770 2862 
Q 544 3141 544 3541 
Q 544 4100 942 4425 
Q 1341 4750 2034 4750 
Q 2731 4750 3128 4425 
Q 3525 4100 3525 3541 
Q 3525 3141 3298 2862 
Q 3072 2584 2669 2484 
Q 3125 2378 3379 2068 
Q 3634 1759 3634 1313 
Q 3634 634 3220 271 
Q 2806 -91 2034 -91 
Q 1263 -91 848 271 
Q 434 634 434 1313 
Q 434 1759 690 2068 
Q 947 2378 1403 2484 
z
M 1172 3481 
Q 1172 3119 1398 2916 
Q 1625 2713 2034 2713 
Q 2441 2713 2670 2916 
Q 2900 3119 2900 3481 
Q 2900 3844 2670 4047 
Q 2441 4250 2034 4250 
Q 1625 4250 1398 4047 
Q 1172 3844 1172 3481 
z
" transform="scale(0.015625)"/>
       </defs>
       <use xlink:href="#DejaVuSans-38"/>
      </g>
     </g>
    </g>
    <g id="xtick_6">
     <g id="line2d_6">
      <g>
       <use xlink:href="#md2930693bb" x="271.415225" y="273.312" style="stroke: #000000; stroke-width: 1.5"/>
      </g>
     </g>
     <g id="text_6">
      <!-- 10 -->
      <g transform="translate(259.962725 293.989187) scale(0.18 -0.18)">
       <defs>
        <path id="DejaVuSans-31" d="M 794 531 
L 1825 531 
L 1825 4091 
L 703 3866 
L 703 4441 
L 1819 4666 
L 2450 4666 
L 2450 531 
L 3481 531 
L 3481 0 
L 794 0 
L 794 531 
z
" transform="scale(0.015625)"/>
       </defs>
       <use xlink:href="#DejaVuSans-31"/>
       <use xlink:href="#DejaVuSans-30" transform="translate(63.623047 0)"/>
      </g>
     </g>
    </g>
    <g id="xtick_7">
     <g id="line2d_7">
      <g>
       <use xlink:href="#md2930693bb" x="313.993145" y="273.312" style="stroke: #000000; stroke-width: 1.5"/>
      </g>
     </g>
     <g id="text_7">
      <!-- 12 -->
      <g transform="translate(302.540645 293.989187) scale(0.18 -0.18)">
       <use xlink:href="#DejaVuSans-31"/>
       <use xlink:href="#DejaVuSans-32" transform="translate(63.623047 0)"/>
      </g>
     </g>
    </g>
    <g id="text_8">
     <!-- Actual Log2HC10 -->
     <g transform="translate(114.216781 315.409812) scale(0.18 -0.18)">
      <defs>
       <path id="DejaVuSans-41" d="M 2188 4044 
L 1331 1722 
L 3047 1722 
L 2188 4044 
z
M 1831 4666 
L 2547 4666 
L 4325 0 
L 3669 0 
L 3244 1197 
L 1141 1197 
L 716 0 
L 50 0 
L 1831 4666 
z
" transform="scale(0.015625)"/>
       <path id="DejaVuSans-63" d="M 3122 3366 
L 3122 2828 
Q 2878 2963 2633 3030 
Q 2388 3097 2138 3097 
Q 1578 3097 1268 2742 
Q 959 2388 959 1747 
Q 959 1106 1268 751 
Q 1578 397 2138 397 
Q 2388 397 2633 464 
Q 2878 531 3122 666 
L 3122 134 
Q 2881 22 2623 -34 
Q 2366 -91 2075 -91 
Q 1284 -91 818 406 
Q 353 903 353 1747 
Q 353 2603 823 3093 
Q 1294 3584 2113 3584 
Q 2378 3584 2631 3529 
Q 2884 3475 3122 3366 
z
" transform="scale(0.015625)"/>
       <path id="DejaVuSans-74" d="M 1172 4494 
L 1172 3500 
L 2356 3500 
L 2356 3053 
L 1172 3053 
L 1172 1153 
Q 1172 725 1289 603 
Q 1406 481 1766 481 
L 2356 481 
L 2356 0 
L 1766 0 
Q 1100 0 847 248 
Q 594 497 594 1153 
L 594 3053 
L 172 3053 
L 172 3500 
L 594 3500 
L 594 4494 
L 1172 4494 
z
" transform="scale(0.015625)"/>
       <path id="DejaVuSans-75" d="M 544 1381 
L 544 3500 
L 1119 3500 
L 1119 1403 
Q 1119 906 1312 657 
Q 1506 409 1894 409 
Q 2359 409 2629 706 
Q 2900 1003 2900 1516 
L 2900 3500 
L 3475 3500 
L 3475 0 
L 2900 0 
L 2900 538 
Q 2691 219 2414 64 
Q 2138 -91 1772 -91 
Q 1169 -91 856 284 
Q 544 659 544 1381 
z
M 1991 3584 
L 1991 3584 
z
" transform="scale(0.015625)"/>
       <path id="DejaVuSans-61" d="M 2194 1759 
Q 1497 1759 1228 1600 
Q 959 1441 959 1056 
Q 959 750 1161 570 
Q 1363 391 1709 391 
Q 2188 391 2477 730 
Q 2766 1069 2766 1631 
L 2766 1759 
L 2194 1759 
z
M 3341 1997 
L 3341 0 
L 2766 0 
L 2766 531 
Q 2569 213 2275 61 
Q 1981 -91 1556 -91 
Q 1019 -91 701 211 
Q 384 513 384 1019 
Q 384 1609 779 1909 
Q 1175 2209 1959 2209 
L 2766 2209 
L 2766 2266 
Q 2766 2663 2505 2880 
Q 2244 3097 1772 3097 
Q 1472 3097 1187 3025 
Q 903 2953 641 2809 
L 641 3341 
Q 956 3463 1253 3523 
Q 1550 3584 1831 3584 
Q 2591 3584 2966 3190 
Q 3341 2797 3341 1997 
z
" transform="scale(0.015625)"/>
       <path id="DejaVuSans-6c" d="M 603 4863 
L 1178 4863 
L 1178 0 
L 603 0 
L 603 4863 
z
" transform="scale(0.015625)"/>
       <path id="DejaVuSans-20" transform="scale(0.015625)"/>
       <path id="DejaVuSans-4c" d="M 628 4666 
L 1259 4666 
L 1259 531 
L 3531 531 
L 3531 0 
L 628 0 
L 628 4666 
z
" transform="scale(0.015625)"/>
       <path id="DejaVuSans-6f" d="M 1959 3097 
Q 1497 3097 1228 2736 
Q 959 2375 959 1747 
Q 959 1119 1226 758 
Q 1494 397 1959 397 
Q 2419 397 2687 759 
Q 2956 1122 2956 1747 
Q 2956 2369 2687 2733 
Q 2419 3097 1959 3097 
z
M 1959 3584 
Q 2709 3584 3137 3096 
Q 3566 2609 3566 1747 
Q 3566 888 3137 398 
Q 2709 -91 1959 -91 
Q 1206 -91 779 398 
Q 353 888 353 1747 
Q 353 2609 779 3096 
Q 1206 3584 1959 3584 
z
" transform="scale(0.015625)"/>
       <path id="DejaVuSans-67" d="M 2906 1791 
Q 2906 2416 2648 2759 
Q 2391 3103 1925 3103 
Q 1463 3103 1205 2759 
Q 947 2416 947 1791 
Q 947 1169 1205 825 
Q 1463 481 1925 481 
Q 2391 481 2648 825 
Q 2906 1169 2906 1791 
z
M 3481 434 
Q 3481 -459 3084 -895 
Q 2688 -1331 1869 -1331 
Q 1566 -1331 1297 -1286 
Q 1028 -1241 775 -1147 
L 775 -588 
Q 1028 -725 1275 -790 
Q 1522 -856 1778 -856 
Q 2344 -856 2625 -561 
Q 2906 -266 2906 331 
L 2906 616 
Q 2728 306 2450 153 
Q 2172 0 1784 0 
Q 1141 0 747 490 
Q 353 981 353 1791 
Q 353 2603 747 3093 
Q 1141 3584 1784 3584 
Q 2172 3584 2450 3431 
Q 2728 3278 2906 2969 
L 2906 3500 
L 3481 3500 
L 3481 434 
z
" transform="scale(0.015625)"/>
       <path id="DejaVuSans-48" d="M 628 4666 
L 1259 4666 
L 1259 2753 
L 3553 2753 
L 3553 4666 
L 4184 4666 
L 4184 0 
L 3553 0 
L 3553 2222 
L 1259 2222 
L 1259 0 
L 628 0 
L 628 4666 
z
" transform="scale(0.015625)"/>
       <path id="DejaVuSans-43" d="M 4122 4306 
L 4122 3641 
Q 3803 3938 3442 4084 
Q 3081 4231 2675 4231 
Q 1875 4231 1450 3742 
Q 1025 3253 1025 2328 
Q 1025 1406 1450 917 
Q 1875 428 2675 428 
Q 3081 428 3442 575 
Q 3803 722 4122 1019 
L 4122 359 
Q 3791 134 3420 21 
Q 3050 -91 2638 -91 
Q 1578 -91 968 557 
Q 359 1206 359 2328 
Q 359 3453 968 4101 
Q 1578 4750 2638 4750 
Q 3056 4750 3426 4639 
Q 3797 4528 4122 4306 
z
" transform="scale(0.015625)"/>
      </defs>
      <use xlink:href="#DejaVuSans-41"/>
      <use xlink:href="#DejaVuSans-63" transform="translate(66.658203 0)"/>
      <use xlink:href="#DejaVuSans-74" transform="translate(121.638672 0)"/>
      <use xlink:href="#DejaVuSans-75" transform="translate(160.847656 0)"/>
      <use xlink:href="#DejaVuSans-61" transform="translate(224.226562 0)"/>
      <use xlink:href="#DejaVuSans-6c" transform="translate(285.505859 0)"/>
      <use xlink:href="#DejaVuSans-20" transform="translate(313.289062 0)"/>
      <use xlink:href="#DejaVuSans-4c" transform="translate(345.076172 0)"/>
      <use xlink:href="#DejaVuSans-6f" transform="translate(399.039062 0)"/>
      <use xlink:href="#DejaVuSans-67" transform="translate(460.220703 0)"/>
      <use xlink:href="#DejaVuSans-32" transform="translate(523.697266 0)"/>
      <use xlink:href="#DejaVuSans-48" transform="translate(587.320312 0)"/>
      <use xlink:href="#DejaVuSans-43" transform="translate(662.515625 0)"/>
      <use xlink:href="#DejaVuSans-31" transform="translate(732.339844 0)"/>
      <use xlink:href="#DejaVuSans-30" transform="translate(795.962891 0)"/>
     </g>
    </g>
   </g>
   <g id="matplotlib.axis_2">
    <g id="ytick_1">
     <g id="line2d_8">
      <defs>
       <path id="m01177cd365" d="M 0 0 
L -3.5 0 
" style="stroke: #000000; stroke-width: 1.5"/>
      </defs>
      <g>
       <use xlink:href="#m01177cd365" x="58.525625" y="273.312" style="stroke: #000000; stroke-width: 1.5"/>
      </g>
     </g>
     <g id="text_9">
      <!-- 0 -->
      <g transform="translate(40.073125 280.150594) scale(0.18 -0.18)">
       <use xlink:href="#DejaVuSans-30"/>
      </g>
     </g>
    </g>
    <g id="ytick_2">
     <g id="line2d_9">
      <g>
       <use xlink:href="#m01177cd365" x="58.525625" y="230.73408" style="stroke: #000000; stroke-width: 1.5"/>
      </g>
     </g>
     <g id="text_10">
      <!-- 2 -->
      <g transform="translate(40.073125 237.572674) scale(0.18 -0.18)">
       <use xlink:href="#DejaVuSans-32"/>
      </g>
     </g>
    </g>
    <g id="ytick_3">
     <g id="line2d_10">
      <g>
       <use xlink:href="#m01177cd365" x="58.525625" y="188.15616" style="stroke: #000000; stroke-width: 1.5"/>
      </g>
     </g>
     <g id="text_11">
      <!-- 4 -->
      <g transform="translate(40.073125 194.994754) scale(0.18 -0.18)">
       <use xlink:href="#DejaVuSans-34"/>
      </g>
     </g>
    </g>
    <g id="ytick_4">
     <g id="line2d_11">
      <g>
       <use xlink:href="#m01177cd365" x="58.525625" y="145.57824" style="stroke: #000000; stroke-width: 1.5"/>
      </g>
     </g>
     <g id="text_12">
      <!-- 6 -->
      <g transform="translate(40.073125 152.416834) scale(0.18 -0.18)">
       <use xlink:href="#DejaVuSans-36"/>
      </g>
     </g>
    </g>
    <g id="ytick_5">
     <g id="line2d_12">
      <g>
       <use xlink:href="#m01177cd365" x="58.525625" y="103.00032" style="stroke: #000000; stroke-width: 1.5"/>
      </g>
     </g>
     <g id="text_13">
      <!-- 8 -->
      <g transform="translate(40.073125 109.838914) scale(0.18 -0.18)">
       <use xlink:href="#DejaVuSans-38"/>
      </g>
     </g>
    </g>
    <g id="ytick_6">
     <g id="line2d_13">
      <g>
       <use xlink:href="#m01177cd365" x="58.525625" y="60.4224" style="stroke: #000000; stroke-width: 1.5"/>
      </g>
     </g>
     <g id="text_14">
      <!-- 10 -->
      <g transform="translate(28.620625 67.260994) scale(0.18 -0.18)">
       <use xlink:href="#DejaVuSans-31"/>
       <use xlink:href="#DejaVuSans-30" transform="translate(63.623047 0)"/>
      </g>
     </g>
    </g>
    <g id="ytick_7">
     <g id="line2d_14">
      <g>
       <use xlink:href="#m01177cd365" x="58.525625" y="17.84448" style="stroke: #000000; stroke-width: 1.5"/>
      </g>
     </g>
     <g id="text_15">
      <!-- 12 -->
      <g transform="translate(28.620625 24.683074) scale(0.18 -0.18)">
       <use xlink:href="#DejaVuSans-31"/>
       <use xlink:href="#DejaVuSans-32" transform="translate(63.623047 0)"/>
      </g>
     </g>
    </g>
    <g id="text_16">
     <!-- Predicted Log2HC10 -->
     <g transform="translate(20.877188 231.672094) rotate(-90) scale(0.18 -0.18)">
      <defs>
       <path id="DejaVuSans-50" d="M 1259 4147 
L 1259 2394 
L 2053 2394 
Q 2494 2394 2734 2622 
Q 2975 2850 2975 3272 
Q 2975 3691 2734 3919 
Q 2494 4147 2053 4147 
L 1259 4147 
z
M 628 4666 
L 2053 4666 
Q 2838 4666 3239 4311 
Q 3641 3956 3641 3272 
Q 3641 2581 3239 2228 
Q 2838 1875 2053 1875 
L 1259 1875 
L 1259 0 
L 628 0 
L 628 4666 
z
" transform="scale(0.015625)"/>
       <path id="DejaVuSans-72" d="M 2631 2963 
Q 2534 3019 2420 3045 
Q 2306 3072 2169 3072 
Q 1681 3072 1420 2755 
Q 1159 2438 1159 1844 
L 1159 0 
L 581 0 
L 581 3500 
L 1159 3500 
L 1159 2956 
Q 1341 3275 1631 3429 
Q 1922 3584 2338 3584 
Q 2397 3584 2469 3576 
Q 2541 3569 2628 3553 
L 2631 2963 
z
" transform="scale(0.015625)"/>
       <path id="DejaVuSans-65" d="M 3597 1894 
L 3597 1613 
L 953 1613 
Q 991 1019 1311 708 
Q 1631 397 2203 397 
Q 2534 397 2845 478 
Q 3156 559 3463 722 
L 3463 178 
Q 3153 47 2828 -22 
Q 2503 -91 2169 -91 
Q 1331 -91 842 396 
Q 353 884 353 1716 
Q 353 2575 817 3079 
Q 1281 3584 2069 3584 
Q 2775 3584 3186 3129 
Q 3597 2675 3597 1894 
z
M 3022 2063 
Q 3016 2534 2758 2815 
Q 2500 3097 2075 3097 
Q 1594 3097 1305 2825 
Q 1016 2553 972 2059 
L 3022 2063 
z
" transform="scale(0.015625)"/>
       <path id="DejaVuSans-64" d="M 2906 2969 
L 2906 4863 
L 3481 4863 
L 3481 0 
L 2906 0 
L 2906 525 
Q 2725 213 2448 61 
Q 2172 -91 1784 -91 
Q 1150 -91 751 415 
Q 353 922 353 1747 
Q 353 2572 751 3078 
Q 1150 3584 1784 3584 
Q 2172 3584 2448 3432 
Q 2725 3281 2906 2969 
z
M 947 1747 
Q 947 1113 1208 752 
Q 1469 391 1925 391 
Q 2381 391 2643 752 
Q 2906 1113 2906 1747 
Q 2906 2381 2643 2742 
Q 2381 3103 1925 3103 
Q 1469 3103 1208 2742 
Q 947 2381 947 1747 
z
" transform="scale(0.015625)"/>
       <path id="DejaVuSans-69" d="M 603 3500 
L 1178 3500 
L 1178 0 
L 603 0 
L 603 3500 
z
M 603 4863 
L 1178 4863 
L 1178 4134 
L 603 4134 
L 603 4863 
z
" transform="scale(0.015625)"/>
      </defs>
      <use xlink:href="#DejaVuSans-50"/>
      <use xlink:href="#DejaVuSans-72" transform="translate(58.552734 0)"/>
      <use xlink:href="#DejaVuSans-65" transform="translate(97.416016 0)"/>
      <use xlink:href="#DejaVuSans-64" transform="translate(158.939453 0)"/>
      <use xlink:href="#DejaVuSans-69" transform="translate(222.416016 0)"/>
      <use xlink:href="#DejaVuSans-63" transform="translate(250.199219 0)"/>
      <use xlink:href="#DejaVuSans-74" transform="translate(305.179688 0)"/>
      <use xlink:href="#DejaVuSans-65" transform="translate(344.388672 0)"/>
      <use xlink:href="#DejaVuSans-64" transform="translate(405.912109 0)"/>
      <use xlink:href="#DejaVuSans-20" transform="translate(469.388672 0)"/>
      <use xlink:href="#DejaVuSans-4c" transform="translate(501.175781 0)"/>
      <use xlink:href="#DejaVuSans-6f" transform="translate(555.138672 0)"/>
      <use xlink:href="#DejaVuSans-67" transform="translate(616.320312 0)"/>
      <use xlink:href="#DejaVuSans-32" transform="translate(679.796875 0)"/>
      <use xlink:href="#DejaVuSans-48" transform="translate(743.419922 0)"/>
      <use xlink:href="#DejaVuSans-43" transform="translate(818.615234 0)"/>
      <use xlink:href="#DejaVuSans-31" transform="translate(888.439453 0)"/>
      <use xlink:href="#DejaVuSans-30" transform="translate(952.0625 0)"/>
     </g>
    </g>
   </g>
   <g id="line2d_15">
    <path d="M 58.525625 273.312 
L 324.637625 7.2 
" clip-path="url(#p5d22ae5eb2)" style="fill: none; stroke-dasharray: 14.8,6.4; stroke-dashoffset: 0; stroke: #000000; stroke-width: 4"/>
   </g>
   <g id="patch_3">
    <path d="M 58.525625 273.312 
L 58.525625 7.2 
" style="fill: none; stroke: #000000; stroke-width: 0.8; stroke-linejoin: miter; stroke-linecap: square"/>
   </g>
   <g id="patch_4">
    <path d="M 324.637625 273.312 
L 324.637625 7.2 
" style="fill: none; stroke: #000000; stroke-width: 0.8; stroke-linejoin: miter; stroke-linecap: square"/>
   </g>
   <g id="patch_5">
    <path d="M 58.525625 273.312 
L 324.637625 273.312 
" style="fill: none; stroke: #000000; stroke-width: 0.8; stroke-linejoin: miter; stroke-linecap: square"/>
   </g>
   <g id="patch_6">
    <path d="M 58.525625 7.2 
L 324.637625 7.2 
" style="fill: none; stroke: #000000; stroke-width: 0.8; stroke-linejoin: miter; stroke-linecap: square"/>
   </g>
   <g id="legend_1">
    <g id="PathCollection_3">
     <path d="M 197.15825 251.80584 
C 197.996896 251.80584 198.801306 251.472643 199.394318 250.87963 
C 199.98733 250.286618 200.320528 249.482208 200.320528 248.643562 
C 200.320528 247.804917 199.98733 247.000507 199.394318 246.407495 
C 198.801306 245.814482 197.996896 245.481285 197.15825 245.481285 
C 196.319604 245.481285 195.515194 245.814482 194.922182 246.407495 
C 194.32917 247.000507 193.995972 247.804917 193.995972 248.643562 
C 193.995972 249.482208 194.32917 250.286618 194.922182 250.87963 
C 195.515194 251.472643 196.319604 251.80584 197.15825 251.80584 
L 197.15825 251.80584 
z
" style="fill: none; stroke: #0000ff"/>
    </g>
    <g id="text_17">
     <!-- R² = 0.873 -->
     <g transform="translate(210.65825 253.368562) scale(0.18 -0.18)">
      <defs>
       <path id="DejaVuSans-52" d="M 2841 2188 
Q 3044 2119 3236 1894 
Q 3428 1669 3622 1275 
L 4263 0 
L 3584 0 
L 2988 1197 
Q 2756 1666 2539 1819 
Q 2322 1972 1947 1972 
L 1259 1972 
L 1259 0 
L 628 0 
L 628 4666 
L 2053 4666 
Q 2853 4666 3247 4331 
Q 3641 3997 3641 3322 
Q 3641 2881 3436 2590 
Q 3231 2300 2841 2188 
z
M 1259 4147 
L 1259 2491 
L 2053 2491 
Q 2509 2491 2742 2702 
Q 2975 2913 2975 3322 
Q 2975 3731 2742 3939 
Q 2509 4147 2053 4147 
L 1259 4147 
z
" transform="scale(0.015625)"/>
       <path id="DejaVuSans-b2" d="M 838 2444 
L 2163 2444 
L 2163 2088 
L 294 2088 
L 294 2431 
Q 400 2528 597 2703 
Q 1672 3656 1672 3950 
Q 1672 4156 1509 4282 
Q 1347 4409 1081 4409 
Q 919 4409 728 4354 
Q 538 4300 313 4191 
L 313 4575 
Q 553 4663 761 4706 
Q 969 4750 1147 4750 
Q 1600 4750 1872 4544 
Q 2144 4338 2144 4000 
Q 2144 3566 1109 2678 
Q 934 2528 838 2444 
z
" transform="scale(0.015625)"/>
       <path id="DejaVuSans-3d" d="M 678 2906 
L 4684 2906 
L 4684 2381 
L 678 2381 
L 678 2906 
z
M 678 1631 
L 4684 1631 
L 4684 1100 
L 678 1100 
L 678 1631 
z
" transform="scale(0.015625)"/>
       <path id="DejaVuSans-2e" d="M 684 794 
L 1344 794 
L 1344 0 
L 684 0 
L 684 794 
z
" transform="scale(0.015625)"/>
       <path id="DejaVuSans-37" d="M 525 4666 
L 3525 4666 
L 3525 4397 
L 1831 0 
L 1172 0 
L 2766 4134 
L 525 4134 
L 525 4666 
z
" transform="scale(0.015625)"/>
       <path id="DejaVuSans-33" d="M 2597 2516 
Q 3050 2419 3304 2112 
Q 3559 1806 3559 1356 
Q 3559 666 3084 287 
Q 2609 -91 1734 -91 
Q 1441 -91 1130 -33 
Q 819 25 488 141 
L 488 750 
Q 750 597 1062 519 
Q 1375 441 1716 441 
Q 2309 441 2620 675 
Q 2931 909 2931 1356 
Q 2931 1769 2642 2001 
Q 2353 2234 1838 2234 
L 1294 2234 
L 1294 2753 
L 1863 2753 
Q 2328 2753 2575 2939 
Q 2822 3125 2822 3475 
Q 2822 3834 2567 4026 
Q 2313 4219 1838 4219 
Q 1578 4219 1281 4162 
Q 984 4106 628 3988 
L 628 4550 
Q 988 4650 1302 4700 
Q 1616 4750 1894 4750 
Q 2613 4750 3031 4423 
Q 3450 4097 3450 3541 
Q 3450 3153 3228 2886 
Q 3006 2619 2597 2516 
z
" transform="scale(0.015625)"/>
      </defs>
      <use xlink:href="#DejaVuSans-52"/>
      <use xlink:href="#DejaVuSans-b2" transform="translate(69.482422 0)"/>
      <use xlink:href="#DejaVuSans-20" transform="translate(109.570312 0)"/>
      <use xlink:href="#DejaVuSans-3d" transform="translate(141.357422 0)"/>
      <use xlink:href="#DejaVuSans-20" transform="translate(225.146484 0)"/>
      <use xlink:href="#DejaVuSans-30" transform="translate(256.933594 0)"/>
      <use xlink:href="#DejaVuSans-2e" transform="translate(320.556641 0)"/>
      <use xlink:href="#DejaVuSans-38" transform="translate(352.34375 0)"/>
      <use xlink:href="#DejaVuSans-37" transform="translate(415.966797 0)"/>
      <use xlink:href="#DejaVuSans-33" transform="translate(479.589844 0)"/>
     </g>
    </g>
   </g>
  </g>
 </g>
 <defs>
  <clipPath id="p5d22ae5eb2">
   <rect x="58.525625" y="7.2" width="266.112" height="266.112"/>
  </clipPath>
 </defs>
</svg>
